<svg xmlns="http://www.w3.org/2000/svg" xmlns:xlink="http://www.w3.org/1999/xlink" xmlns:lucid="lucid" width="1446.37" height="1415.56"><g transform="translate(2435.6017881944445 -80)" lucid:page-tab-id="1jKEypa1_VF6"><path d="M-1536.6 835.17v29.1a.07.07 0 0 0 .08.07.07.07 0 0 1 .07.07v29.1" stroke="#cc4e00" stroke-width="9" fill="none"/><path d="M-1532.1 835.3h-8.96v-4.66l4.25.04 4.7-.16zM-1531.98 898.53l-3.94-.52h-.6l-4.4.5v-5.1h8.94z" stroke="#cc4e00" stroke-width=".05" fill="#cc4e00"/><path d="M-1642.9 503v288.8c5.95 50.54 198.8 50.54 204.77 0V503c-5.96-39.14-198.82-39.14-204.78 0zM-1642.9 503h208.6M-1642.9 791.8h208.6" stroke="#3a414a" stroke-width="2" fill="#fff"/><path d="M-1807.73 786.54v-366.6a6 6 0 0 1 6-6h6.4" stroke="#1071e5" stroke-width="9" fill="none"/><path d="M-1803.25 791.3l-8.3-.46-.65.08v-4.5h8.95z" stroke="#1071e5" stroke-width=".05" fill="#1071e5"/><path d="M-1795.46 413.95h7.62M-1488.27 472.06V420.1a6 6 0 0 1 6-6h121.45a.07.07 0 0 0 .07-.08.07.07 0 0 1 .07-.07h6.6" stroke="#1071e5" stroke-width="9" fill="none"/><path d="M-1483.8 477.38l-4.34-.8-4.6-.66v-3.98h8.95z" stroke="#1071e5" stroke-width=".05" fill="#1071e5"/><path d="M-1335.3 413.95l-14.28 4.63v-9.27z" stroke="#1071e5" stroke-width="9" fill="#1071e5"/><path d="M-1751.42 413.95h35.43a.07.07 0 0 1 .08.07.07.07 0 0 0 .07.07h122.82a6 6 0 0 1 6 6v22.3M-1751.3 413.95h-7.62" stroke="#1071e5" stroke-width="9" fill="none"/><path d="M-1587.03 461.16l-4.63-14.27h9.27z" stroke="#1071e5" stroke-width="9" fill="#1071e5"/><path d="M-2321 560h-28a6 6 0 0 0-6 6v59.6M-2321.1 560h7.6" stroke="#82755b" stroke-width="9" fill="none"/><path d="M-2350.53 633.1h-.88l-.98-2.16-2.47-.9-2.5.9-1 2.15h-1.13v-7.62h8.95z" stroke="#82755b" stroke-width=".05" fill="#82755b"/><path d="M-2355 785.25v21.42" stroke="#82755b" stroke-width="9" fill="none"/><path d="M-2350.53 785.37h-8.94v-4.62h8.94z" stroke="#82755b" stroke-width=".05" fill="#82755b"/><path d="M-2355 825.44l-4.64-14.27h9.28z" stroke="#82755b" stroke-width="9" fill="#82755b"/><path d="M-2355 722.02v17.34" stroke="#82755b" stroke-width="9" fill="none"/><path d="M-2350.53 722.14h-8.94v-7.62h.42v.22l1 2.1 2.5.88 2.46-.88 1-2.1v-.22h1.57zM-2350.53 743.86h-8.94v-4.62h8.94z" stroke="#82755b" stroke-width=".05" fill="#82755b"/><path d="M-1550.6 1026.53a6 6 0 0 1-6-6v-28a6 6 0 0 1 6-6h28a6 6 0 0 1 6 6v28a6 6 0 0 1-6 6z" fill="none"/><path d="M-1546.6 1022.53h20l-10-15zm10-15v-2zm0-2l-10-15h20zM-1536.6 1006.53h-20m0 10v-20" stroke="#3a414a" fill="#fff"/><use xlink:href="#a" transform="matrix(6.123233995736766e-17,-1,1,6.123233995736766e-17,-1511.587871952083,1046.52711862263) translate(19.4921875 28.08376736111111)"/><path d="M-2226 983.5a6 6 0 0 1 6 6v28a6 6 0 0 1-6 6h-28a6 6 0 0 1-6-6v-28a6 6 0 0 1 6-6z" fill="none"/><path d="M-2230 987.5h-20l10 15zm-10 15v2zm0 2l10 15h-20zM-2240 1003.5h20m0-10v20" stroke="#3a414a" fill="#fff"/><use xlink:href="#b" transform="matrix(6.123233995736766e-17,1,-1,6.123233995736766e-17,-2265,963.5) translate(15.02712673611111 28.08376736111111)"/><path d="M-2226 385.57a6 6 0 0 1 6 6v28a6 6 0 0 1-6 6h-28a6 6 0 0 1-6-6v-28a6 6 0 0 1 6-6z" fill="none"/><path d="M-2230 389.57h-20l10 15zm-10 15v2zm0 2l10 15h-20zM-2240 405.57h20m0-10v20" stroke="#3a414a" fill="#fff"/><use xlink:href="#c" transform="matrix(6.123233995736766e-17,1,-1,6.123233995736766e-17,-2265,365.56881050033326) translate(15.12478298611111 28.08376736111111)"/><path d="M-1707.43 520.2l.1.08.05 8.86-8.94.06-.03-4.47-.13-.1v-259.2h8.95zm322.93-338h-321.23l-.4.03-.24.06-.22.08-.2.12-.17.16-.15.18-.13.2-.1.22-.04.23-.03.4v54.66h-8.95v-55l.12-1.47.38-1.6.63-1.54.86-1.4 1.08-1.25 1.25-1.06 1.4-.86 1.53-.63 1.6-.38 1.46-.12h321.58z" stroke="#cc4e00" stroke-width=".05" fill="#cc4e00"/><path d="M-1380 182.2h-4.62v-8.95h4.62z" stroke="#cc4e00" stroke-width=".05" fill="#cc4e00"/><path d="M-1711.75 547.94l-4.63-14.27h9.27z" fill="#cc4e00"/><path d="M-1711.75 562.42l-10.8-33.22h21.6z" stroke="#cc4e00" stroke-width=".05" fill="#cc4e00"/><use xlink:href="#d" transform="matrix(1,0,0,1,-1774.2331717129687,238.55598958333334) translate(0 21.52777777777778)"/><use xlink:href="#e" transform="matrix(1,0,0,1,-1774.2331717129687,238.55598958333334) translate(49.240451388888886 21.52777777777778)"/><path d="M-1061.92 563.72h-8.95v-296.1h8.95zm-8.84-390.35l1.6.38 1.52.63 1.4.86 1.26 1.07 1.07 1.26.85 1.4.63 1.53.38 1.6.12 1.45v57.2h-8.95V183.9l-.04-.4-.06-.24-.1-.22-.12-.2-.15-.18-.18-.16-.2-.12-.23-.1-.23-.05-.4-.03h-389.4v-8.95h389.74z" stroke="#cc4e00" stroke-width=".05" fill="#cc4e00"/><path d="M-1061.92 571.22h-8.95v-7.62h8.95zM-1461.86 182.2h-4.6v-8.95h4.6z" stroke="#cc4e00" stroke-width=".05" fill="#cc4e00"/><path d="M-1320.75 401.5a6 6 0 0 1 6-6h117.8a6 6 0 0 1 6 6v24.9a6 6 0 0 1-6 6h-117.8a6 6 0 0 1-6-6z" fill="none"/><use xlink:href="#f" transform="matrix(1,0,0,1,-1315.75,400.5) translate(0 21.58376736111111)"/><use xlink:href="#g" transform="matrix(1,0,0,1,-1315.75,400.5) translate(36.545138888888886 21.58376736111111)"/><path d="M-1061.92 563.72h-8.95v-296.1h8.95zm21.6-381.8h-19.9l-.4.04-.25.05-.22.1-.2.13-.17.15-.15.18-.13.2-.1.22-.04.23-.02.42v57.12h-8.95v-57.47l.1-1.46.4-1.6.63-1.5.86-1.42 1.07-1.25 1.24-1.07 1.4-.86 1.52-.63 1.6-.38 1.47-.13h20.25z" stroke="#cc4e00" stroke-width=".05" fill="#cc4e00"/><path d="M-1061.92 571.22h-8.95v-7.62h8.95z" stroke="#cc4e00" stroke-width=".05" fill="#cc4e00"/><path d="M-1035.82 176.94v.56l.5 4.42h-5.12v-8.95h5.14z" fill="#cc4e00"/><path stroke="#cc4e00" stroke-width=".05" fill="#cc4e00"/><use xlink:href="#d" transform="matrix(1,0,0,1,-1137.796161801987,240.7411073733472) translate(0 21.52777777777778)"/><use xlink:href="#h" transform="matrix(1,0,0,1,-1137.796161801987,240.7411073733472) translate(49.240451388888886 21.52777777777778)"/><use xlink:href="#i" transform="matrix(1,0,0,1,-1137.796161801987,240.7411073733472) translate(105.94618055555554 21.52777777777778)"/><path d="M-1711.75 600.5v359.78a6 6 0 0 0 6 6h348.1a.34.34 0 0 1 .35.34.34.34 0 0 0 .34.34h4.2M-1711.75 600.63v-8.13" stroke="#cc4e00" stroke-width="10" fill="none"/><path d="M-1333.48 966.96l-14.27 4.63v-9.28z" stroke="#cc4e00" stroke-width="10" fill="#cc4e00"/><path d="M-1513.9 921.3c0-12.3-10.1-22.3-22.55-22.3-12.47 0-22.57 10-22.57 22.3 0 12.32 10.1 22.3 22.57 22.3 12.46 0 22.56-9.98 22.56-22.3z" stroke="#3a414a" stroke-width="2" fill="#fff"/><use xlink:href="#j" transform="matrix(1,0,0,1,-1553.3792812613078,904.583795804115) translate(-1.5078125 21.22222222222222)"/><path d="M-1536.45 949.1v18.15a.07.07 0 0 1-.07.07.07.07 0 0 0-.07.06v18.15" stroke="#cc4e00" stroke-width="9" fill="none"/><path d="M-1537 944.6h.6l4.42-.48v5.1h-8.95v-5.13z" stroke="#cc4e00" stroke-width=".05" fill="#cc4e00"/><path d="M-1536.6 985.4v7.63" stroke="#cc4e00" stroke-width="9" fill="none"/><g fill="none"><path d="M-1740 791.6V503.86h408.2V791.6z"/><path d="M-1535.9 791.6v-64.75l-61.22-14.38 122.46-21.58-122.46-21.6 122.46-21.57-122.46-21.58 122.46-21.58-122.46-21.58 122.46-21.6-61.23-14.38v-43.16" stroke="#1071e5" stroke-width="6"/></g><path d="M-2235.53 355.74h-8.94v-88.3h8.94zm694.58-182.37l1.6.38 1.52.63 1.4.86 1.26 1.07 1.07 1.26.86 1.4.63 1.53.37 1.6.12 1.45V299h-8.96V183.9l-.04-.4-.05-.24-.1-.22-.12-.2-.15-.18-.18-.16-.2-.12-.22-.1-.23-.05-.4-.03h-691.07l-.42.03-.23.06-.22.08-.2.12-.17.16-.15.18-.13.2-.1.22-.04.23-.03.4v56.66h-8.94v-57l.1-1.47.4-1.6.62-1.54.86-1.4 1.08-1.25 1.26-1.06 1.4-.86 1.52-.63 1.6-.38 1.46-.12h691.77z" stroke="#cc4e00" stroke-width=".05" fill="#cc4e00"/><path d="M-1532.1 306.5h-8.96v-7.62h8.95z" stroke="#cc4e00" stroke-width=".05" fill="#cc4e00"/><path d="M-2240 374.5l-4.64-14.26h9.28z" fill="#cc4e00"/><path d="M-2240 389l-10.8-33.23h21.6z" stroke="#cc4e00" stroke-width=".05" fill="#cc4e00"/><use xlink:href="#d" transform="matrix(1,0,0,1,-2296.2228732638887,240.5559895833333) translate(0 21.52777777777778)"/><use xlink:href="#k" transform="matrix(1,0,0,1,-2296.2228732638887,240.5559895833333) translate(49.240451388888886 21.52777777777778)"/><path d="M-990.23 177.45c0-12.46-10-22.55-22.3-22.55s-22.3 10.1-22.3 22.55c0 12.45 10 22.55 22.3 22.55s22.3-10.1 22.3-22.55z" stroke="#3a414a" stroke-width="2" fill="#fff"/><use xlink:href="#l" transform="matrix(1,0,0,1,-1029.2493884524222,160.53330420105195) translate(-0.7821180555555571 21.22222222222222)"/><path d="M-1210.8 966.96h138.4a6 6 0 0 0 6-6V835.3" stroke="#cc4e00" stroke-width="9" fill="none"/><path d="M-1210.7 971.43h-4.6v-7.9l-.1-1.05h4.7z" stroke="#cc4e00" stroke-width=".05" fill="#cc4e00"/><path d="M-1066.4 816.54l4.64 14.27h-9.27z" stroke="#cc4e00" stroke-width="9" fill="#cc4e00"/><path d="M-1380 119.72c0-12.45-9.98-22.55-22.3-22.55-12.3 0-22.3 10.1-22.3 22.55 0 12.46 10 22.55 22.3 22.55 12.32 0 22.3-10.1 22.3-22.55z" stroke="#3a414a" stroke-width="2" fill="#fff"/><use xlink:href="#m" transform="matrix(1,0,0,1,-1419.0159888722167,102.80706592459157) translate(3.1371527777777786 21.22222222222222)"/><path d="M-1066.4 750.14V605.72" stroke="#cc4e00" stroke-width="9" fill="none"/><path d="M-1061.92 755.17l-3.78-.52h-.75l-4.42.48v-5.1h8.95z" stroke="#cc4e00" stroke-width=".05" fill="#cc4e00"/><path d="M-1066.4 605.84v-7.62M-1536.6 1056.36v13.8" stroke="#cc4e00" stroke-width="9" fill="none"/><path d="M-1536.6 1037.6l4.65 14.26h-9.27zM-1536.6 1088.94l-4.62-14.27h9.27z" stroke="#cc4e00" stroke-width="9" fill="#cc4e00"/><path d="M-1316.3 963.58a6 6 0 0 1 6-6h88a6 6 0 0 1 6 6v10.8a6 6 0 0 1-6 6h-88a6 6 0 0 1-6-6zM-1292.8 1022l-5.5 9.86h64l-5.5-9.72z" stroke="#3a414a" stroke-width="2" fill="#fff"/><path d="M-1298.7 917.6v102.86c17.7 5.63 47.1 5.63 64.8 0V917.6c-17.7-5.75-47.1-5.75-64.8 0z" stroke="#3a414a" stroke-width="2" fill="#fff"/><path d="M-1245.1 994.65c0 11.17-9.2 20.05-20.6 20.05-11.4 0-20.6-8.88-20.6-20.05 0-11.03 9.2-19.9 20.6-19.9 11.4 0 20.6 8.87 20.6 19.9zM-1245.7 943.9c0 11.03-9.2 19.92-20.6 19.92-11.4 0-20.6-8.9-20.6-19.93 0-11.04 9.2-20.04 20.6-20.04 11.4 0 20.6 9 20.6 20.03z" stroke="#3a414a" stroke-width="2" fill="#fff"/><use xlink:href="#n" transform="matrix(1,0,0,1,-1346.3029907087757,1036.8549121248484) translate(57.121310763888886 28.08376736111111)"/><path d="M-1658.54 1265v195h160v-195l-60-39v-26h-40v26z" stroke="#3a414a" stroke-width="2" fill="#fff"/><use xlink:href="#o" transform="matrix(1,0,0,1,-1658.5361003795704,1465) translate(58.054470486111114 28.08376736111111)"/><path d="M-1620 1110.17v-14a6 6 0 0 0-6-6h-608a6 6 0 0 1-6-6v-59.67" stroke="#008a0e" stroke-width="9" fill="none"/><path d="M-1620 1128.94l-4.63-14.27h9.27z" stroke="#008a0e" stroke-width="9" fill="#008a0e"/><path d="M-2240 1024.62V1017" stroke="#008a0e" stroke-width="9" fill="none"/><path d="M-1536.6 439.4V341" stroke="#cc4e00" stroke-width="9" fill="none"/><path d="M-1536.6 458.18l-4.62-14.27h9.27z" stroke="#cc4e00" stroke-width="9" fill="#cc4e00"/><path d="M-1536.6 341.1v-7.6" stroke="#cc4e00" stroke-width="9" fill="none"/><path d="M-2240 426.57v527.1M-2240 426.68v-7.6" stroke="#3a414a" stroke-width="9" fill="none"/><path d="M-2240 972.44l-4.64-14.27h9.28z" stroke="#3a414a" stroke-width="9" fill="#3a414a"/><path d="M-2200 429.86a6 6 0 0 1 6-6h28a6 6 0 0 1 6 6v28a6 6 0 0 1-6 6h-28a6 6 0 0 1-6-6z" fill="none"/><path d="M-2196 433.86v20l15-10zm15 10h2zm2 0l15-10v20zM-2180 443.86v-20m-10 0h20" stroke="#3a414a" fill="#fff"/><use xlink:href="#p" transform="matrix(1,0,0,1,-2220,468.85693596618) translate(15.672743055555557 28.08376736111111)"/><path d="M-1873.75 822.06s2.33-3.9 5.38-7.07c3.2-3.18 8.15-7.8 14.4-11.46 6.25-3.66 15.27-7.56 21.67-9.02 6.4-1.46 10.76-2.44 20.8-2.68 10.02 0 17.6-.25 28.2 3.17 10.76 3.42 13.52 4.15 20.5 8.54 7.13 4.14 14.26 10 17.45 14.38 3.2 4.14 3.8 5.36 3.8 5.36" stroke="#3a414a" stroke-width="2" fill="#fff"/><path d="M-1880.44 822.8h145.57v212.75h-145.57V822.8z" stroke="#3a414a" stroke-width="2" fill="#fff"/><path d="M-1873.3 822.55v194.48h131.3V822.8" stroke="#3a414a" stroke-width="2" fill="#fff"/><use xlink:href="#q" transform="matrix(1,0,0,1,-1910.4364430793678,1040.3048368155485) translate(76.88237847222223 28.08376736111111)"/><path d="M-2201 443.86h-5.67M-2201.1 443.86h7.6" stroke="#6db1ff" stroke-width="9" fill="none"/><path d="M-2225.44 443.86l14.27-4.64v9.27z" stroke="#6db1ff" stroke-width="9" fill="#6db1ff"/><path d="M-2012.95 800.93V788.6a.37.37 0 0 0-.37-.36.37.37 0 0 1-.37-.37l.02-12.33" stroke="#6db1ff" stroke-width="9" fill="none"/><path d="M-2008.47 806.76l-2.6-1.08-2.62-.34-2.6.34-1.12.47v-5.33h8.95z" stroke="#6db1ff" stroke-width=".05" fill="#6db1ff"/><path d="M-2013.68 775.66v-7.62M-2013.68 733.54v-14.5a.36.36 0 0 0-.36-.36.36.36 0 0 1-.36-.35v-14.5M-2013.68 733.43v7.62M-2014.4 703.94v-7.62M-2014.4 661.82V632.1M-2014.4 661.7v7.62M-2014.4 632.2v-7.6M-2014.4 590.1V449.86a6 6 0 0 0-6-6H-2159M-2014.4 589.98v7.62M-2158.9 443.86h-7.6" stroke="#6db1ff" stroke-width="9" fill="none"/><g stroke="#3a414a" stroke-width="2"><path d="M-2352.4 633.33v9.6c0 1.2-1.1 2.13-2.45 2.13-1.4 0-2.5-.94-2.5-2.14v-9.6c0-1.28 1.1-2.22 2.5-2.22 1.35 0 2.45.94 2.45 2.23z" fill="#ccc"/><path d="M-2345.05 643.1v10.27h-20.3V643.1z" fill="#fff"/><path d="M-2353.1 704.92v9.6c0 1.2-1.1 2.14-2.45 2.14-1.4 0-2.5-.94-2.5-2.14v-9.6c0-1.28 1.1-2.22 2.5-2.22 1.35 0 2.45.94 2.45 2.22z" fill="#ccc"/><path d="M-2345.75 694.13v10.28h-20.3v-10.27z" fill="#fff"/><path d="M-2355 695.93c-13.8 0-25-9.93-25-22.27 0-12.24 11.2-22.18 25-22.18s25 9.94 25 22.18c0 12.34-11.2 22.27-25 22.27z" fill="#fff"/></g><use xlink:href="#r" transform="matrix(6.123233995736766e-17,1,-1,6.123233995736766e-17,-2385,601.0992584228911) translate(47.55512152777778 28.08376736111111)"/><path d="M-1372.6 925.75c0-12.52-10.16-22.67-22.68-22.67s-22.66 10.15-22.66 22.67c0 12.52 10.14 22.66 22.66 22.66s22.67-10.13 22.67-22.65z" stroke="#3a414a" stroke-width="2" fill="#fff"/><use xlink:href="#s" transform="matrix(1,0,0,1,-1412.2769702171745,908.743950025273) translate(0.90625 21.22222222222222)"/><path d="M-1115.4 925.63c0-12.46-10-22.55-22.3-22.55-12.32 0-22.3 10.1-22.3 22.55 0 12.45 9.98 22.55 22.3 22.55 12.3 0 22.3-10.1 22.3-22.55z" stroke="#3a414a" stroke-width="2" fill="#fff"/><use xlink:href="#t" transform="matrix(1,0,0,1,-1154.426287303969,908.7147653108908) translate(-4.003472222222221 21.22222222222222)"/><path d="M-1350.63 966.96h-6.24a.43.43 0 0 1-.43-.43.43.43 0 0 0-.43-.43h-31.55a6 6 0 0 1-6-6v-6.2" stroke="#cc4e00" stroke-width="9" fill="none"/><path d="M-1331.87 966.96l-14.26 4.63v-9.28z" stroke="#cc4e00" stroke-width="9" fill="#cc4e00"/><path d="M-1395.97 949.4l.74.02 4.43-.5v5.1h-8.95v-5.13z" stroke="#cc4e00" stroke-width=".05" fill="#cc4e00"/><path d="M-1372.6 1008.8c0-12.3-10-22.27-22.3-22.27s-22.3 9.97-22.3 22.27c0 12.3 10 22.28 22.3 22.28s22.3-9.98 22.3-22.28z" stroke="#3a414a" stroke-width="2" fill="#fff"/><use xlink:href="#u" transform="matrix(1,0,0,1,-1411.6219702897681,992.0955590535152) translate(0.3454861111111107 21.22222222222222)"/><path d="M-1394.9 981.02v-8.06a6 6 0 0 1 6-6h38.27" stroke="#cc4e00" stroke-width="9" fill="none"/><path d="M-1390.43 986.02l-4.45-.5-4.5.5v-5.1h8.95z" stroke="#cc4e00" stroke-width=".05" fill="#cc4e00"/><path d="M-1331.87 966.96l-14.26 4.63v-9.28z" stroke="#cc4e00" stroke-width="9" fill="#cc4e00"/><path d="M-1137.7 953.68v7.28a6 6 0 0 1-6 6h-67.1" stroke="#cc4e00" stroke-width="9" fill="none"/><path d="M-1138.2 949.18h.55l4.42-.5v5.12h-8.95v-5.14zM-1210.7 971.43h-4.6v-7.9l-.1-1.05h4.7z" stroke="#cc4e00" stroke-width=".05" fill="#cc4e00"/><path d="M-1135.4 1032.47v-59.5a6 6 0 0 0-6-6h-69.4" stroke="#cc4e00" stroke-width="9" fill="none"/><path d="M-1130.93 1036.97h-8.95v-4.6h8.95zM-1210.7 971.43h-4.6v-7.9l-.1-1.05h4.7z" stroke="#cc4e00" stroke-width=".05" fill="#cc4e00"/><path d="M-1373.12 462.3c0-12.32-10.03-22.3-22.4-22.3-12.4 0-22.42 9.98-22.42 22.3 0 12.3 10.03 22.28 22.4 22.28 12.4 0 22.42-9.98 22.42-22.3z" stroke="#3a414a" stroke-width="2" fill="#fff"/><use xlink:href="#v" transform="matrix(1,0,0,1,-1412.3409689164328,445.57205333612046) translate(0.20746527777777857 21.22222222222222)"/><path d="M-1423.44 462.3h-33.42a6 6 0 0 0-6 6v9.78" stroke="#cc4e00" stroke-width="9" fill="none"/><path d="M-1418.94 462.02v.32l.5 4.42h-5.12v-8.95h5.13zM-1458.4 484.17l-3.6-1.32-4.6-1.47-.74-.2v-3.22h8.95z" stroke="#cc4e00" stroke-width=".05" fill="#cc4e00"/><path d="M-1433.84 621.8a6 6 0 0 1 6-6h41.84a6 6 0 0 1 6 6v51.85a6 6 0 0 1-6 6h-41.84a6 6 0 0 1-6-6z" fill="none"/><use xlink:href="#w" transform="matrix(1,0,0,1,-1433.8368413478258,615.7975145271771) translate(3.9911024305555536 40.083767361111114)"/><path d="M-1600 749.86a6 6 0 0 1 6-6h108a6 6 0 0 1 6 6v17a6 6 0 0 1-6 6h-108a6 6 0 0 1-6-6z" stroke="#000" stroke-opacity="0" stroke-width="2" fill="#fff"/><path d="M-1657.94 733.37a6 6 0 0 1 6-6h228a6 6 0 0 1 6 6v48a6 6 0 0 1-6 6h-228a6 6 0 0 1-6-6z" fill="none"/><use xlink:href="#x" transform="matrix(1,0,0,1,-1657.9442543314062,727.3648343085154) translate(97.48480902777777 38.083767361111114)"/><path d="M-1456.24 559.4c0-12.32-10.04-22.3-22.42-22.3-12.38 0-22.4 9.98-22.4 22.3 0 12.33 10.02 22.3 22.4 22.3 12.38 0 22.42-9.98 22.42-22.3z" stroke="#3a414a" stroke-width="2" fill="#fff"/><use xlink:href="#y" transform="matrix(1,0,0,1,-1495.466926500202,542.6710260891001) translate(2.2690972222222214 21.22222222222222)"/><path d="M-1456.24 647.73c0-12.33-10.04-22.3-22.42-22.3-12.38 0-22.4 9.97-22.4 22.3 0 12.32 10.02 22.3 22.4 22.3 12.38 0 22.42-9.98 22.42-22.3z" stroke="#3a414a" stroke-width="2" fill="#fff"/><use xlink:href="#z" transform="matrix(1,0,0,1,-1495.466926500202,630.9934547058944) translate(-3.3732638888888893 21.22222222222222)"/><path d="M-1506.27 1254.28v-24.45a6 6 0 0 1 6-6h32.98" stroke="#008a0e" stroke-width="9" fill="none"/><path d="M-1501.8 1261.7l-8.95-5.83v-1.7h8.95zM-1462.8 1223.7v.18l.5 4.42h-5.1v-8.95h5.1z" stroke="#008a0e" stroke-width=".05" fill="#008a0e"/><path d="M-1595.4 120c0-12.3-10-22.27-22.3-22.27-12.32 0-22.3 9.97-22.3 22.27 0 12.3 9.98 22.27 22.3 22.27 12.3 0 22.3-9.97 22.3-22.27z" stroke="#3a414a" stroke-width="2" fill="#fff"/><use xlink:href="#A" transform="matrix(1,0,0,1,-1634.426287303969,103.2946787073453) translate(-0.7821180555555571 20.22222222222222)"/><path d="M-1536.18 162.45v15.32" stroke="#cc4e00" stroke-width="9" fill="none"/><path d="M-1531.7 162.57h-8.96v-4.7l2.83.15 6.12-.24z" stroke="#cc4e00" stroke-width=".05" fill="#cc4e00"/><path d="M-1536.18 177.66v4.6" stroke="#cc4e00" stroke-width="9" fill="none"/><g stroke="#3a414a"><path d="M-1125.4 1037.47h-20l10 16zM-1135.4 1053.47l-16-10v20z" fill="#fff"/><path d="M-1135.45 1049.47h.04a4 4 0 0 1 4 4 4 4 0 0 1-4 4 4 4 0 0 1-4-4 4 4 0 0 1 4-4h.03" fill="#3a414a"/><path d="M-1123.4 1045.47l2 16 2-16" fill="none"/></g><use xlink:href="#B" transform="matrix(6.123233995736766e-17,1,-1,6.123233995736766e-17,-1160.4102984317524,1013.4713228415885) translate(15.200737847222221 28.08376736111111)"/><path d="M-1716 1210v20l16-10zM-1700 1220l-10 16h20z" stroke="#3a414a" fill="#fff"/><path d="M-1704 1220.04v-.04a4 4 0 0 1 4-4 4 4 0 0 1 4 4 4 4 0 0 1-4 4 4 4 0 0 1-4-4v-.04" stroke="#3a414a" fill="#3a414a"/><path d="M-1708 1208l16-2-16-2" stroke="#3a414a" fill="none"/><use xlink:href="#C" transform="matrix(1,0,0,1,-1740,1245) translate(18.087022569444446 28.08376736111111)"/><path d="M-1649.6 1253.5v-26.82a6 6 0 0 0-6-6h-35.64" stroke="#008a0e" stroke-width="9" fill="none"/><path d="M-1645.12 1255.08l-8.95 5.82v-7.52h8.95zM-1691.13 1225.15h-5.06l-1.08-1.74.5-.2 1.32-3.2-1.33-3.2-1.4-.6h7.08z" stroke="#008a0e" stroke-width=".05" fill="#008a0e"/><path d="M-1721 1220h-3.34" stroke="#008a0e" stroke-width="9" fill="none"/><path d="M-1716.5 1224.47h-4.62v-8.94h4.62z" stroke="#008a0e" stroke-width=".05" fill="#008a0e"/><path d="M-1743.1 1220l14.26-4.63v9.27z" stroke="#008a0e" stroke-width="9" fill="#008a0e"/><path d="M-2000 1207.55a6 6 0 0 1 6-6h230.33a6 6 0 0 1 6 6v24.9a6 6 0 0 1-6 6H-1994a6 6 0 0 1-6-6z" fill="none"/><use xlink:href="#D" transform="matrix(1,0,0,1,-1995,1206.5509895833334) translate(0 21.58376736111111)"/><use xlink:href="#g" transform="matrix(1,0,0,1,-1995,1206.5509895833334) translate(149.0776909722222 21.58376736111111)"/><path d="M-2154.58 201.5a6 6 0 0 1 6-6h348a6 6 0 0 1 6 6v188a6 6 0 0 1-6 6h-348a6 6 0 0 1-6-6z" fill="none"/><use xlink:href="#E" transform="matrix(1,0,0,1,-2154.584184027778,195.5) translate(-1.0763888888888893 29.036458333333336)"/><use xlink:href="#F" transform="matrix(1,0,0,1,-2154.584184027778,195.5) translate(28.46527777777778 29.036458333333336)"/><use xlink:href="#G" transform="matrix(1,0,0,1,-2154.584184027778,195.5) translate(87.55381944444446 29.036458333333336)"/><use xlink:href="#H" transform="matrix(1,0,0,1,-2154.584184027778,195.5) translate(-1.0763888888888893 61.302083333333336)"/><use xlink:href="#I" transform="matrix(1,0,0,1,-2154.584184027778,195.5) translate(28.46527777777778 61.302083333333336)"/><use xlink:href="#J" transform="matrix(1,0,0,1,-2154.584184027778,195.5) translate(71.13454861111111 61.302083333333336)"/><use xlink:href="#K" transform="matrix(1,0,0,1,-2154.584184027778,195.5) translate(-1.0763888888888893 93.56770833333334)"/><use xlink:href="#L" transform="matrix(1,0,0,1,-2154.584184027778,195.5) translate(28.46527777777778 93.56770833333334)"/><use xlink:href="#M" transform="matrix(1,0,0,1,-2154.584184027778,195.5) translate(75.95225694444446 93.56770833333334)"/><use xlink:href="#N" transform="matrix(1,0,0,1,-2154.584184027778,195.5) translate(-1.0763888888888893 125.83333333333334)"/><use xlink:href="#O" transform="matrix(1,0,0,1,-2154.584184027778,195.5) translate(28.46527777777778 125.83333333333334)"/><use xlink:href="#P" transform="matrix(1,0,0,1,-2154.584184027778,195.5) translate(138.11371527777777 125.83333333333334)"/><use xlink:href="#Q" transform="matrix(1,0,0,1,-2154.584184027778,195.5) translate(-1.0763888888888893 158.09895833333334)"/><use xlink:href="#R" transform="matrix(1,0,0,1,-2154.584184027778,195.5) translate(28.46527777777778 158.09895833333334)"/><use xlink:href="#S" transform="matrix(1,0,0,1,-2154.584184027778,195.5) translate(248.9079861111111 158.09895833333334)"/><use xlink:href="#T" transform="matrix(1,0,0,1,-2154.584184027778,195.5) translate(-1.0763888888888893 190.36458333333334)"/><use xlink:href="#U" transform="matrix(1,0,0,1,-2154.584184027778,195.5) translate(28.46527777777778 190.36458333333334)"/><use xlink:href="#V" transform="matrix(1,0,0,1,-2154.584184027778,195.5) translate(137.15017361111111 190.36458333333334)"/><path d="M-1504.24 1176.5h362.83a6 6 0 0 0 6-6v-108" stroke="#cc4e00" stroke-width="9" fill="none"/><path d="M-1522.03 1177.04l14.12-5.07.27 9.27z" stroke="#cc4e00" stroke-width="9" fill="#cc4e00"/><path d="M-1130.93 1062.63h-8.95v-5.77l1.06-.67.2.48 3.2 1.33 3.22-1.32.7-1.67h.57z" stroke="#cc4e00" stroke-width=".05" fill="#cc4e00"/><path d="M-1417.2 1223.83c0-12.3-9.98-22.28-22.3-22.28-12.3 0-22.3 9.97-22.3 22.28 0 12.3 10 22.27 22.3 22.27 12.32 0 22.3-9.97 22.3-22.27z" stroke="#3a414a" stroke-width="2" fill="#fff"/><use xlink:href="#W" transform="matrix(1,0,0,1,-1456.2116718580157,1207.1194300142183) translate(-1.0295138888888893 20.22222222222222)"/><path d="M-1043.73 778.3c0-12.5-10.15-22.66-22.67-22.66-12.52 0-22.67 10.15-22.67 22.67 0 12.53 10.15 22.68 22.67 22.68 12.52 0 22.67-10.15 22.67-22.67z" stroke="#3a414a" stroke-width="2" fill="#fff"/><use xlink:href="#X" transform="matrix(1,0,0,1,-1083.400444700238,761.3112592008055) translate(-1.8029513888888893 21.22222222222222)"/><path d="M-2435.6 749.86a6 6 0 0 1 6-6h149.2a6 6 0 0 1 6 6v24.9a6 6 0 0 1-6 6h-149.2a6 6 0 0 1-6-6z" fill="none"/><use xlink:href="#Y" transform="matrix(1,0,0,1,-2430.6017881944445,748.85693596618) translate(0 21.58376736111111)"/><use xlink:href="#Z" transform="matrix(1,0,0,1,-2430.6017881944445,748.85693596618) translate(91.37369791666666 21.58376736111111)"/><path d="M-1080.4 604.72a6 6 0 0 1-6-6v-28a6 6 0 0 1 6-6h28a6 6 0 0 1 6 6v28a6 6 0 0 1-6 6z" fill="none"/><path d="M-1076.4 600.72h20l-10-15zm10-15v-2zm0-2l-10-15h20zM-1066.4 584.72h-20m0 10v-20" stroke="#3a414a" fill="#fff"/><use xlink:href="#aa" transform="matrix(6.123233995736766e-17,-1,1,6.123233995736766e-17,-1041.3985923575426,624.7198662353724) translate(18.03276909722222 28.08376736111111)"/><path d="M-1550.6 340a6 6 0 0 1-6-6v-28a6 6 0 0 1 6-6h28a6 6 0 0 1 6 6v28a6 6 0 0 1-6 6z" fill="none"/><path d="M-1546.6 336h20l-10-15zm10-15v-2zm0-2l-10-15h20zM-1536.6 320h-20m0 10v-20" stroke="#3a414a" fill="#fff"/><use xlink:href="#ab" transform="matrix(6.123233995736766e-17,-1,1,6.123233995736766e-17,-1511.5878719520833,360) translate(17.41970486111111 28.08376736111111)"/><path d="M-1725.75 599a6 6 0 0 1-6-6v-28a6 6 0 0 1 6-6h28a6 6 0 0 1 6 6v28a6 6 0 0 1-6 6z" fill="none"/><path d="M-1721.75 595h20l-10-15zm10-15v-2zm0-2l-10-15h20zM-1711.75 579h-20m0 10v-20" stroke="#3a414a" fill="#fff"/><use xlink:href="#ac" transform="matrix(6.123233995736766e-17,-1,1,6.123233995736766e-17,-1686.75,619) translate(17.32204861111111 28.08376736111111)"/><path d="M-1525.33 807.8c0 5.84-4.5 10.54-10 10.54-5.54 0-10-4.7-10-10.53 0-5.8 4.46-10.5 10-10.5 5.5 0 10 4.7 10 10.5z" stroke="#3a414a" stroke-width="2" fill="#fff"/><path d="M-1521.12 792.88l-28.4 32.1" stroke="#3a414a" stroke-width="2" fill="none"/><path d="M-1551.64 827.2l1.34-4.74 3.1 3.02z" stroke="#3a414a" stroke-width="2" fill="#3a414a"/><path d="M-1545.32 808.4h2.1l3.15-5.57 7.38 11.1 5.26-5.54h2.1" stroke="#3a414a" stroke-width="2" fill="none"/><path d="M-1563.6 88.24v60.8c1.54 10.64 51.26 10.64 52.8 0v-60.8c-1.54-8.24-51.26-8.24-52.8 0zM-1563.6 88.24h53.8M-1563.6 149.04h53.8" stroke="#3a414a" stroke-width="2" fill="#fff"/><path d="M-1568.6 120h-21.8" stroke="#cc4e00" stroke-width="8" fill="none"/><path d="M-1564.6 123.97h-4.1v-7.94h4.1zM-1590.3 123.97h-4.55l.44-3.86v-.16l-.45-3.9 4.54-.02z" stroke="#cc4e00" stroke-width=".05" fill="#cc4e00"/><path d="M-1508.77 107.55a6 6 0 0 1 6-6h42.46a6 6 0 0 1 6 6v24.9a6 6 0 0 1-6 6h-42.47a6 6 0 0 1-6-6z" fill="none"/><use xlink:href="#ad" transform="matrix(1,0,0,1,-1503.77126762676,106.55098958333333) translate(0 21.58376736111111)"/><path d="M-1521.12 798.88a6 6 0 0 1 6-6h35.76a6 6 0 0 1 6 6v19.5a6 6 0 0 1-6 6h-35.76a6 6 0 0 1-6-6z" fill="none"/><use xlink:href="#ae" transform="matrix(1,0,0,1,-1516.1185073661884,797.8745647078613) translate(0 17.46701388888889)"/><path d="M-2054.82 902.87v130.6h82.27v-130.6c0-21.95-18.42-39.74-41.13-39.74-22.72 0-41.14 17.8-41.14 39.74zm28.8-79.5v39.76h24.68v-39.75c0-9.4-5.53-17.03-12.35-17.03-6.8 0-12.33 7.62-12.33 17.03" stroke="#3a414a" stroke-width="2" fill="#fff"/><use xlink:href="#af" transform="matrix(1,0,0,1,-2074.822550467271,1038.4713228415885) translate(36.722439236111114 28.08376736111111)"/><path d="M-1794.58 398.75a6 6 0 0 1 6-6h30.4a6 6 0 0 1 6 6v30.4a6 6 0 0 1-6 6h-30.4a6 6 0 0 1-6-6z" fill="none"/><path d="M-1790.34 403.35v21.2l15.96-10.6zm15.96 10.6h2zm2 0l15.96-10.6v21.2zM-1773.38 413.95v-12.72m-8.48 0c0-2.34 3.8-4.24 8.48-4.24 4.68 0 8.48 1.9 8.48 4.23z" stroke="#3a414a" fill="#fff"/><use xlink:href="#ag" transform="matrix(1,0,0,1,-1814.5841840277778,440.15029016640443) translate(19.18012152777778 28.08376736111111)"/><path d="M-2028.4 702.82a6 6 0 0 1-6-6v-28a6 6 0 0 1 6-6h28a6 6 0 0 1 6 6v28a6 6 0 0 1-6 6z" fill="none"/><path d="M-2024.4 698.82h20l-10-15zm10-15v-2zm0-2l-10-15h20zM-2014.4 682.82h-20m0 10v-20" stroke="#3a414a" fill="#fff"/><use xlink:href="#ah" transform="matrix(6.123233995736766e-17,-1,1,6.123233995736766e-17,-1989.3982118055555,722.8219875432869) translate(15.46657986111111 28.08376736111111)"/><path d="M-2028.4 631.1a6 6 0 0 1-6-6v-28a6 6 0 0 1 6-6h28a6 6 0 0 1 6 6v28a6 6 0 0 1-6 6z" fill="none"/><path d="M-2024.4 627.1h20l-10-15zm10-15v-2zm0-2l-10-15h20zM-2014.4 611.1h-20m0 10v-20" stroke="#3a414a" fill="#fff"/><g><use xlink:href="#ai" transform="matrix(6.123233995736766e-17,-1,1,6.123233995736766e-17,-1989.3982118055555,651.0992584228911) translate(15.846354166666664 28.08376736111111)"/></g><g><path d="M-2027.68 774.54a6 6 0 0 1-6-6v-28a6 6 0 0 1 6-6h28a6 6 0 0 1 6 6v28a6 6 0 0 1-6 6z" fill="none"/><path d="M-2023.68 770.54h20l-10-15zm10-15v-2zm0-2l-10-15h20zM-2013.68 754.54h-12m0 8c-2.2 0-4-3.58-4-8 0-4.4 1.8-8 4-8z" stroke="#3a414a" fill="#fff"/><path d="M-2029.68 754.54h-4v20l20-20" stroke="#3a414a" fill="none"/></g><g><use xlink:href="#aj" transform="matrix(6.123233995736766e-17,-1,1,6.123233995736766e-17,-1988.685185015882,794.5447166636827) translate(16.866319444444443 28.08376736111111)"/></g><path d="M-1402.3 146.27v28.46" stroke="#cc4e00" stroke-width="6" fill="none"/><path d="M-1402.8 143.27h.56l2.92-.32v3.4h-5.95v-3.4z" stroke="#cc4e00" stroke-width=".05" fill="#cc4e00"/><path d="M-1402.3 174.65v3.08" stroke="#cc4e00" stroke-width="6" fill="none"/><g><path d="M-1550.6 1140a6 6 0 0 1-6-6v-28a6 6 0 0 1 6-6h28a6 6 0 0 1 6 6v28a6 6 0 0 1-6 6z" fill="none"/><path d="M-1546.6 1136h20l-10-15zm10-15v-2zm0-2l-10-15h20zM-1536.6 1120h-20m0 10v-20" stroke="#3a414a" fill="#fff"/></g><g><use xlink:href="#ak" transform="matrix(6.123233995736766e-17,-1,1,6.123233995736766e-17,-1511.5878719520833,1160) translate(17.164713541666664 28.08376736111111)"/></g><path d="M-1536.6 1205.75V1141" stroke="#cc4e00" stroke-width="9" fill="none"/><path d="M-1536.6 1224.5l-4.62-14.25h9.27z" stroke="#cc4e00" stroke-width="9" fill="#cc4e00"/><path d="M-1536.6 1141.12v-7.62" stroke="#cc4e00" stroke-width="9" fill="none"/><path d="M-1620.88 1208.4h.44a.44.44 0 0 0 .44-.46V1181" stroke="#008a0e" stroke-width="9" fill="none"/><path d="M-1621.67 1225.72l-4-14.46 9.28.42z" stroke="#008a0e" stroke-width="9" fill="#008a0e"/><path d="M-1620 1181.12v-7.62" stroke="#008a0e" stroke-width="9" fill="none"/><g><path d="M-1606 1140a6 6 0 0 1 6 6v28a6 6 0 0 1-6 6h-28a6 6 0 0 1-6-6v-28a6 6 0 0 1 6-6z" fill="none"/><path d="M-1610 1144h-20l10 15zm-10 15v2zm0 2l10 15h-20zM-1620 1160h20m0-10v20" stroke="#3a414a" fill="#fff"/></g><g><use xlink:href="#al" transform="matrix(6.123233995736766e-17,1,-1,6.123233995736766e-17,-1645,1120) translate(18.011067708333332 28.08376736111111)"/></g><path d="M-1993.68 429.86a6 6 0 0 1 6-6h28a6 6 0 0 1 6 6v28a6 6 0 0 1-6 6h-28a6 6 0 0 1-6-6z" fill="none"/><path d="M-1989.68 433.86v20l15-10zm15 10h2zm2 0l15-10v20zM-1973.68 443.86v-20m-10 0h20" stroke="#3a414a" fill="#fff"/><g><use xlink:href="#am" transform="matrix(1,0,0,1,-2013.6851850158823,468.85693596618) translate(17.403428819444443 28.08376736111111)"/></g><path d="M-1994.68 443.86h-13.72a6 6 0 0 0-6 6V590.1M-1994.8 443.86h7.62M-2014.4 589.98v7.62" stroke="#6db1ff" stroke-width="9" fill="none"/><path d="M-1875.53 526.67h-8.94v-6.88h8.94zm-8.83-87.17l1.6.38 1.52.63 1.4.87 1.26 1.07 1.07 1.25.85 1.4.63 1.52.38 1.6.12 1.46v43.23h-8.95v-42.87l-.04-.4-.06-.24-.1-.23-.12-.2-.15-.18-.18-.17-.2-.12-.23-.08-.23-.06-.42-.03h-66.5v-8.95h66.86z" stroke="#6db1ff" stroke-width=".05" fill="#6db1ff"/><path d="M-1952.57 448.33h-7.62l.02-8.95h7.6z" stroke="#6db1ff" stroke-width=".05" fill="#6db1ff"/><path d="M-1880 545.44l-4.63-14.27h9.27z" fill="#6db1ff"/><path d="M-1880 559.92l-10.8-33.22h21.6z" stroke="#6db1ff" stroke-width=".05" fill="#6db1ff"/><g><use xlink:href="#an" transform="matrix(1,0,0,1,-1938.7890625,492.90644466447253) translate(0 21.52777777777778)"/><use xlink:href="#ao" transform="matrix(1,0,0,1,-1938.7890625,492.90644466447253) translate(64.18185763888889 21.52777777777778)"/></g><path d="M-2320 546a6 6 0 0 1 6-6h28a6 6 0 0 1 6 6v28a6 6 0 0 1-6 6h-28a6 6 0 0 1-6-6z" fill="none"/><path d="M-2316 550v20l15-10zm15 10h2zm2 0l15-10v20zM-2300 560v-20m-10 0h20" stroke="#3a414a" fill="#fff"/><g><use xlink:href="#ap" transform="matrix(1,0,0,1,-2340,585) translate(16.76323784722222 28.08376736111111)"/></g><path d="M-2279 560h34.5M-2278.9 560h-7.6M-2244.6 560h4.6" stroke="#82755b" stroke-width="9" fill="none"/><path d="M-2234.8 715.02a6 6 0 0 1 6-6h41.84a6 6 0 0 1 6 6v51.86a6 6 0 0 1-6 6h-41.84a6 6 0 0 1-6-6z" fill="none"/><g><use xlink:href="#aq" transform="matrix(1,0,0,1,-2234.796960432458,709.0176287416285) translate(2.0325520833333357 40.083767361111114)"/></g><defs><path d="M600 0L52-1490h200c166 485 304 806 458 1336 156-533 285-846 449-1336h202L819 0H600" id="ar"/><path d="M180 0v-1490h901v168H370v510h643v168H370V0H180" id="as"/><path d="M180 0v-1490h190v1322h690V0H180" id="at"/><g id="a"><use transform="matrix(0.010850694444444444,0,0,0.010850694444444444,0,0)" xlink:href="#ar"/><use transform="matrix(0.010850694444444444,0,0,0.010850694444444444,15.33203125,0)" xlink:href="#as"/><use transform="matrix(0.010850694444444444,0,0,0.010850694444444444,28.450520833333332,0)" xlink:href="#at"/></g><path d="M180 0v-1490h270l367 940c28 72 75 218 110 339 35-117 81-264 110-339l362-940h271V0h-187c2-448-5-837 7-1287-157 497-311 829-483 1287H842C666-458 514-784 354-1284c12 438 5 843 7 1284H180" id="au"/><path d="M180 0v-1490h528c311 0 458 177 458 395 0 191-114 278-244 313v14c139 9 302 137 302 371 0 225-148 397-499 397H180zm190-168h350c232 0 321-102 321-231 0-149-120-277-311-277H370v508zm0-668h328c160 0 286-101 286-255 0-129-87-231-280-231H370v486" id="av"/><g id="b"><use transform="matrix(0.010850694444444444,0,0,0.010850694444444444,0,0)" xlink:href="#ar"/><use transform="matrix(0.010850694444444444,0,0,0.010850694444444444,15.33203125,0)" xlink:href="#au"/><use transform="matrix(0.010850694444444444,0,0,0.010850694444444444,35.40581597222222,0)" xlink:href="#av"/></g><path d="M98-1322v-168h1126v168H757V0H567v-1322H98" id="aw"/><g id="c"><use transform="matrix(0.010850694444444444,0,0,0.010850694444444444,0,0)" xlink:href="#ar"/><use transform="matrix(0.010850694444444444,0,0,0.010850694444444444,15.33203125,0)" xlink:href="#au"/><use transform="matrix(0.010850694444444444,0,0,0.010850694444444444,35.40581597222222,0)" xlink:href="#aw"/></g><path fill="#333" d="M180 0v-1490h190v644h782v-644h190V0h-190v-678H370V0H180" id="ax"/><path fill="#333" d="M180 0v-1490h901v168H370v510h643v168H370V0H180" id="ay"/><path fill="#333" d="M180 0v-1490h908v168H370v486h669v168H370v500h727V0H180" id="az"/><g id="d"><use transform="matrix(0.010850694444444444,0,0,0.010850694444444444,0,0)" xlink:href="#ax"/><use transform="matrix(0.010850694444444444,0,0,0.010850694444444444,16.514756944444443,0)" xlink:href="#ay"/><use transform="matrix(0.010850694444444444,0,0,0.010850694444444444,29.633246527777775,0)" xlink:href="#az"/></g><path fill="#333" d="M677 24c-213 0-288-135-325-197h-20V0H158v-1490h180v551h14c37-59 106-193 324-193 279 0 474 222 474 576 0 356-194 580-473 580zm-27-161c209 0 317-186 317-421 0-232-105-413-317-413-206 0-314 166-314 413 0 249 111 421 314 421" id="aA"/><path fill="#333" d="M140 405l46-156c120 36 205 19 263-150l32-93L54-1118h197c107 313 237 620 324 950 87-331 219-637 326-950h196L606 167c-68 178-176 259-334 259-64 0-113-12-132-21" id="aB"/><path fill="#333" d="M158 418v-1536h174v179h20c37-59 106-193 324-193 279 0 474 222 474 576 0 356-194 580-473 580-213 0-288-135-325-197h-14v591H158zm492-555c209 0 317-186 317-421 0-232-105-413-317-413-206 0-314 166-314 413 0 249 111 421 314 421" id="aC"/><path fill="#333" d="M471 26C259 26 90-98 90-318c0-256 228-303 435-329 202-27 287-16 287-108 0-139-79-219-234-219-161 0-248 86-283 164l-173-57c86-203 278-265 451-265 150 0 419 46 419 395V0H815v-152h-12C765-73 660 26 471 26zm31-159c199 0 310-134 310-271v-155c-30 35-226 55-295 64-131 17-246 59-246 186 0 116 97 176 231 176" id="aD"/><path fill="#333" d="M538 24C308 24 148-78 108-271l171-41c32 123 123 178 257 178 156 0 256-77 256-169 0-77-54-128-164-154l-186-44c-203-48-300-148-300-305 0-192 176-326 414-326 230 0 351 112 402 269l-163 42c-31-80-94-158-238-158-133 0-233 69-233 162 0 83 57 129 188 160l169 40c203 48 298 149 298 302 0 196-179 339-441 339" id="aE"/><g id="e"><use transform="matrix(0.010850694444444444,0,0,0.010850694444444444,0,0)" xlink:href="#aA"/><use transform="matrix(0.010850694444444444,0,0,0.010850694444444444,13.172743055555552,0)" xlink:href="#aB"/><use transform="matrix(0.010850694444444444,0,0,0.010850694444444444,25.661892361111104,0)" xlink:href="#aC"/><use transform="matrix(0.010850694444444444,0,0,0.010850694444444444,39.48567708333333,0)" xlink:href="#aD"/><use transform="matrix(0.010850694444444444,0,0,0.010850694444444444,51.96397569444444,0)" xlink:href="#aE"/><use transform="matrix(0.010850694444444444,0,0,0.010850694444444444,63.693576388888886,0)" xlink:href="#aE"/></g><path d="M180 0v-1490h224l606 953c40 63 108 177 176 312-27-437-7-821-13-1265h190V0h-226C860-448 622-778 356-1262c27 476 11 792 15 1262H180" id="aF"/><path d="M154 0v-137l495-537c165-179 249-281 249-418 0-156-121-253-280-253-170 0-278 110-278 278H158c0-264 200-443 465-443 266 0 455 183 455 416 0 161-73 288-336 568L416-179v12h687V0H154" id="aG"/><g id="f"><use transform="matrix(0.010850694444444444,0,0,0.010850694444444444,0,0)" xlink:href="#aF"/><use transform="matrix(0.010850694444444444,0,0,0.010850694444444444,16.74262152777778,0)" xlink:href="#aG"/></g><path d="M180 0v-1490h908v168H370v486h669v168H370v500h727V0H180" id="aH"/><path d="M65 0l393-574-370-544h210c88 136 192 297 267 435 67-142 176-302 264-435h206L661-564 1053 0H844c-94-144-206-310-287-458C484-308 366-142 273 0H65" id="aI"/><path d="M338-670V0H158v-1490h180v566c73-149 190-208 336-208 226 0 379 139 379 422V0H872v-695c0-172-96-275-252-275-161 0-282 109-282 300" id="aJ"/><path d="M471 26C259 26 90-98 90-318c0-256 228-303 435-329 202-27 287-16 287-108 0-139-79-219-234-219-161 0-248 86-283 164l-173-57c86-203 278-265 451-265 150 0 419 46 419 395V0H815v-152h-12C765-73 660 26 471 26zm31-159c199 0 310-134 310-271v-155c-30 35-226 55-295 64-131 17-246 59-246 186 0 116 97 176 231 176" id="aK"/><path d="M537 14c-226 0-379-139-379-422v-710h180v695c0 172 97 275 253 275 160 0 281-109 281-300v-670h181V0H879v-209C806-46 684 14 537 14" id="aL"/><path d="M538 24C308 24 148-78 108-271l171-41c32 123 123 178 257 178 156 0 256-77 256-169 0-77-54-128-164-154l-186-44c-203-48-300-148-300-305 0-192 176-326 414-326 230 0 351 112 402 269l-163 42c-31-80-94-158-238-158-133 0-233 69-233 162 0 83 57 129 188 160l169 40c203 48 298 149 298 302 0 196-179 339-441 339" id="aM"/><path d="M598-1118v154H368v674c0 100 37 144 132 144 23 0 62-6 92-12L629-6c-37 13-88 20-134 20-193 0-307-107-307-290v-688H20v-154h168v-266h180v266h230" id="aN"/><g id="g"><use transform="matrix(0.010850694444444444,0,0,0.010850694444444444,0,0)" xlink:href="#aH"/><use transform="matrix(0.010850694444444444,0,0,0.010850694444444444,13.35720486111111,0)" xlink:href="#aI"/><use transform="matrix(0.010850694444444444,0,0,0.010850694444444444,25.48828125,0)" xlink:href="#aJ"/><use transform="matrix(0.010850694444444444,0,0,0.010850694444444444,38.62847222222222,0)" xlink:href="#aK"/><use transform="matrix(0.010850694444444444,0,0,0.010850694444444444,51.10677083333333,0)" xlink:href="#aL"/><use transform="matrix(0.010850694444444444,0,0,0.010850694444444444,64.24696180555554,0)" xlink:href="#aM"/><use transform="matrix(0.010850694444444444,0,0,0.010850694444444444,75.97656249999999,0)" xlink:href="#aN"/></g><path fill="#333" d="M158 0v-1118h175l1 205c55-151 181-225 313-225 147 0 245 90 285 228 53-141 190-228 352-228 194 0 352 125 352 384V0h-181v-749c0-161-105-225-225-225-151 0-243 103-243 244V0H807v-767c0-124-93-207-219-207-131 0-250 92-250 270V0H158" id="aO"/><path fill="#333" d="M158 0v-1118h180V0H158zm91-1301c-68 0-125-53-125-119s57-119 125-119c69 0 126 53 126 119s-57 119-126 119" id="aP"/><path fill="#333" d="M338-670V0H158v-1118h173l1 207c72-158 192-221 342-221 226 0 378 139 378 422V0H872v-695c0-172-96-275-252-275-161 0-282 109-282 300" id="aQ"/><g id="h"><use transform="matrix(0.010850694444444444,0,0,0.010850694444444444,0,0)" xlink:href="#aO"/><use transform="matrix(0.010850694444444444,0,0,0.010850694444444444,19.466145833333332,0)" xlink:href="#aD"/><use transform="matrix(0.010850694444444444,0,0,0.010850694444444444,31.944444444444443,0)" xlink:href="#aP"/><use transform="matrix(0.010850694444444444,0,0,0.010850694444444444,37.326388888888886,0)" xlink:href="#aQ"/></g><path fill="#333" d="M338-1490V0H158v-1490h180" id="aR"/><path fill="#333" d="M628 24c-324 0-524-230-524-574 0-343 198-582 503-582 237 0 487 146 487 559v75H286c9 234 145 362 343 362 132 0 231-58 273-172l174 48C1024-91 857 24 628 24zM287-650h624c-17-190-120-322-304-322-192 0-309 151-320 322" id="aS"/><g id="i"><use transform="matrix(0.010850694444444444,0,0,0.010850694444444444,0,0)" xlink:href="#aR"/><use transform="matrix(0.010850694444444444,0,0,0.010850694444444444,5.381944444444445,0)" xlink:href="#aP"/><use transform="matrix(0.010850694444444444,0,0,0.010850694444444444,10.76388888888889,0)" xlink:href="#aQ"/><use transform="matrix(0.010850694444444444,0,0,0.010850694444444444,23.893229166666664,0)" xlink:href="#aS"/></g><path d="M784 20c-382 0-662-292-662-764 0-473 280-766 662-766s660 293 660 766c0 472-278 764-660 764zm0-176c266 0 475-207 475-588 0-383-209-590-475-590-268 0-477 208-477 590 0 380 209 588 477 588" id="aT"/><g id="j"><use transform="matrix(0.008680555555555556,0,0,0.008680555555555556,0,0)" xlink:href="#aw"/><use transform="matrix(0.008680555555555556,0,0,0.008680555555555556,11.475694444444445,0)" xlink:href="#aw"/><use transform="matrix(0.008680555555555556,0,0,0.008680555555555556,22.421875,0)" xlink:href="#aT"/></g><path fill="#333" d="M158 0v-1118h174v172h12c41-113 157-188 290-188 26 0 70 2 91 3v181c-11-2-60-10-108-10-161 0-279 109-279 260V0H158" id="aU"/><path fill="#333" d="M598-1118v154H368v674c0 100 37 144 132 144 23 0 62-6 92-12L629-6c-37 13-88 20-134 20-193 0-307-107-307-290v-688H20v-154h168v-266h180v266h230" id="aV"/><path fill="#333" d="M537 14c-226 0-379-139-379-422v-710h180v695c0 172 97 275 253 275 160 0 281-109 281-300v-670h181V0H879v-209C806-46 684 14 537 14" id="aW"/><g id="k"><use transform="matrix(0.010850694444444444,0,0,0.010850694444444444,0,0)" xlink:href="#aU"/><use transform="matrix(0.010850694444444444,0,0,0.010850694444444444,7.996961805555555,0)" xlink:href="#aS"/><use transform="matrix(0.010850694444444444,0,0,0.010850694444444444,20.95269097222222,0)" xlink:href="#aV"/><use transform="matrix(0.010850694444444444,0,0,0.010850694444444444,28.22265625,0)" xlink:href="#aW"/><use transform="matrix(0.010850694444444444,0,0,0.010850694444444444,41.36284722222222,0)" xlink:href="#aU"/><use transform="matrix(0.010850694444444444,0,0,0.010850694444444444,50.07595486111111,0)" xlink:href="#aQ"/></g><g id="l"><use transform="matrix(0.008680555555555556,0,0,0.008680555555555556,0,0)" xlink:href="#aw"/><use transform="matrix(0.008680555555555556,0,0,0.008680555555555556,11.475694444444445,0)" xlink:href="#as"/><use transform="matrix(0.008680555555555556,0,0,0.008680555555555556,21.970486111111114,0)" xlink:href="#aT"/></g><path d="M370-1490V0H180v-1490h190" id="aX"/><g id="m"><use transform="matrix(0.008680555555555556,0,0,0.008680555555555556,0,0)" xlink:href="#aw"/><use transform="matrix(0.008680555555555556,0,0,0.008680555555555556,11.475694444444445,0)" xlink:href="#aw"/><use transform="matrix(0.008680555555555556,0,0,0.008680555555555556,22.95138888888889,0)" xlink:href="#aX"/></g><g id="n"><use transform="matrix(0.010850694444444444,0,0,0.010850694444444444,0,0)" xlink:href="#au"/><use transform="matrix(0.010850694444444444,0,0,0.010850694444444444,20.07378472222222,0)" xlink:href="#as"/><use transform="matrix(0.010850694444444444,0,0,0.010850694444444444,33.19227430555556,0)" xlink:href="#at"/></g><path d="M180 0v-1490h510c348 0 508 194 508 460 0 198-88 351-276 417L1256 0h-220L726-579c-117 2-238 0-356 1V0H180zm190-747h312c235 0 327-108 327-283 0-177-92-293-329-293H370v576" id="aY"/><path d="M657 26c-323 0-524-166-541-416h195c15 169 171 246 346 246 202 0 356-106 356-265 5-203-294-238-475-293-239-73-380-191-380-389 0-252 224-419 512-419 294 0 499 171 508 396H992c-17-145-151-228-328-228-193 0-321 102-321 242 0 156 175 211 284 241l149 41c160 44 422 134 422 412 0 244-197 432-541 432" id="aZ"/><g id="o"><use transform="matrix(0.010850694444444444,0,0,0.010850694444444444,0,0)" xlink:href="#aY"/><use transform="matrix(0.010850694444444444,0,0,0.010850694444444444,14.301215277777777,0)" xlink:href="#aZ"/><use transform="matrix(0.010850694444444444,0,0,0.010850694444444444,28.559027777777775,0)" xlink:href="#ar"/></g><path d="M789 20c-398 0-667-293-667-764 0-473 273-766 655-766 315 0 558 198 612 487h-196c-61-191-204-311-415-311-262 0-471 207-471 590 0 380 208 588 482 588 249 0 420-165 425-427H828v-166h572v163c0 370-256 606-611 606" id="ba"/><g id="p"><use transform="matrix(0.010850694444444444,0,0,0.010850694444444444,0,0)" xlink:href="#ar"/><use transform="matrix(0.010850694444444444,0,0,0.010850694444444444,15.33203125,0)" xlink:href="#aF"/><use transform="matrix(0.010850694444444444,0,0,0.010850694444444444,32.07465277777778,0)" xlink:href="#ba"/></g><path d="M645 0H180v-1490h484c435 0 692 280 692 742 0 466-257 748-711 748zM370-168h263c363 0 539-218 539-580 0-358-176-574-521-574H370v1154" id="bb"/><path d="M458 0L52-1490h194c108 439 233 855 324 1313 92-459 221-873 331-1313h216c110 438 234 854 330 1307 92-455 216-869 323-1307h196L1558 0h-221l-256-944c-26-95-50-200-73-331-22 122-44 223-73 331L680 0H458" id="bc"/><g id="q"><use transform="matrix(0.010850694444444444,0,0,0.010850694444444444,0,0)" xlink:href="#bb"/><use transform="matrix(0.010850694444444444,0,0,0.010850694444444444,16.03732638888889,0)" xlink:href="#bc"/><use transform="matrix(0.010850694444444444,0,0,0.010850694444444444,37.93402777777778,0)" xlink:href="#aY"/></g><path d="M783 20c-382 0-661-292-661-764 0-473 279-766 661-766 302 0 548 182 601 489h-190c-42-204-217-313-411-313-268 0-476 208-476 590 0 381 209 588 476 588 195 0 369-110 411-313h190c-52 303-296 489-601 489" id="bd"/><g id="r"><use transform="matrix(0.010850694444444444,0,0,0.010850694444444444,0,0)" xlink:href="#au"/><use transform="matrix(0.010850694444444444,0,0,0.010850694444444444,20.07378472222222,0)" xlink:href="#ar"/><use transform="matrix(0.010850694444444444,0,0,0.010850694444444444,34.65711805555556,0)" xlink:href="#bd"/></g><path d="M180 0v-1490h510c348 0 508 209 508 474 0 266-160 477-507 477H370V0H180zm190-706h312c236 0 327-133 327-310 0-176-91-307-329-307H370v617" id="be"/><g id="s"><use transform="matrix(0.008680555555555556,0,0,0.008680555555555556,0,0)" xlink:href="#be"/><use transform="matrix(0.008680555555555556,0,0,0.008680555555555556,11.354166666666668,0)" xlink:href="#au"/><use transform="matrix(0.008680555555555556,0,0,0.008680555555555556,27.413194444444446,0)" xlink:href="#aX"/></g><g id="t"><use transform="matrix(0.008680555555555556,0,0,0.008680555555555556,0,0)" xlink:href="#be"/><use transform="matrix(0.008680555555555556,0,0,0.008680555555555556,11.354166666666668,0)" xlink:href="#au"/><use transform="matrix(0.008680555555555556,0,0,0.008680555555555556,27.413194444444446,0)" xlink:href="#aT"/></g><g id="u"><use transform="matrix(0.008680555555555556,0,0,0.008680555555555556,0,0)" xlink:href="#aw"/><use transform="matrix(0.008680555555555556,0,0,0.008680555555555556,11.475694444444445,0)" xlink:href="#au"/><use transform="matrix(0.008680555555555556,0,0,0.008680555555555556,27.534722222222218,0)" xlink:href="#aX"/></g><path d="M52 0l541-1490h220L1361 0h-200l-149-416H398L254 0H52zm404-582h497c-103-290-145-390-251-756-108 377-145 460-246 756" id="bf"/><g id="v"><use transform="matrix(0.008680555555555556,0,0,0.008680555555555556,0,0)" xlink:href="#be"/><use transform="matrix(0.008680555555555556,0,0,0.008680555555555556,11.354166666666668,0)" xlink:href="#aw"/><use transform="matrix(0.008680555555555556,0,0,0.008680555555555556,21.319444444444446,0)" xlink:href="#bf"/></g><path d="M180 0v-1490h190c0 262 1 526-3 784 217-279 467-523 702-784h249L716-845 1319 0h-225L585-716 370-489V0H180" id="bg"/><g id="w"><use transform="matrix(0.010850694444444444,0,0,0.010850694444444444,0,0)" xlink:href="#aw"/><use transform="matrix(0.010850694444444444,0,0,0.010850694444444444,14.344618055555555,0)" xlink:href="#aF"/><use transform="matrix(0.010850694444444444,0,0,0.010850694444444444,31.087239583333336,0)" xlink:href="#bg"/></g><path d="M180 0v-1490h190v644h782v-644h190V0h-190v-678H370V0H180" id="bh"/><path d="M57 0l534-763-501-727h220c122 187 296 416 391 605 94-191 272-419 396-605h215L811-770 1340 0h-219C986-204 811-426 699-640 588-430 407-202 273 0H57" id="bi"/><g id="x"><use transform="matrix(0.010850694444444444,0,0,0.010850694444444444,0,0)" xlink:href="#bh"/><use transform="matrix(0.010850694444444444,0,0,0.010850694444444444,16.514756944444443,0)" xlink:href="#aH"/><use transform="matrix(0.010850694444444444,0,0,0.010850694444444444,29.871961805555554,0)" xlink:href="#bi"/></g><g id="y"><use transform="matrix(0.008680555555555556,0,0,0.008680555555555556,0,0)" xlink:href="#aw"/><use transform="matrix(0.008680555555555556,0,0,0.008680555555555556,11.475694444444445,0)" xlink:href="#bh"/><use transform="matrix(0.008680555555555556,0,0,0.008680555555555556,24.6875,0)" xlink:href="#aX"/></g><g id="z"><use transform="matrix(0.008680555555555556,0,0,0.008680555555555556,0,0)" xlink:href="#aw"/><use transform="matrix(0.008680555555555556,0,0,0.008680555555555556,11.475694444444445,0)" xlink:href="#bh"/><use transform="matrix(0.008680555555555556,0,0,0.008680555555555556,24.6875,0)" xlink:href="#au"/></g><g id="A"><use transform="matrix(0.008680555555555556,0,0,0.008680555555555556,0,0)" xlink:href="#be"/><use transform="matrix(0.008680555555555556,0,0,0.008680555555555556,11.354166666666668,0)" xlink:href="#ba"/><use transform="matrix(0.008680555555555556,0,0,0.008680555555555556,24.088541666666668,0)" xlink:href="#aw"/></g><g id="B"><use transform="matrix(0.010850694444444444,0,0,0.010850694444444444,0,0)" xlink:href="#ar"/><use transform="matrix(0.010850694444444444,0,0,0.010850694444444444,15.33203125,0)" xlink:href="#be"/><use transform="matrix(0.010850694444444444,0,0,0.010850694444444444,29.524739583333332,0)" xlink:href="#au"/></g><g id="C"><use transform="matrix(0.010850694444444444,0,0,0.010850694444444444,0,0)" xlink:href="#ar"/><use transform="matrix(0.010850694444444444,0,0,0.010850694444444444,15.33203125,0)" xlink:href="#be"/><use transform="matrix(0.010850694444444444,0,0,0.010850694444444444,29.524739583333332,0)" xlink:href="#aY"/></g><path d="M481 0L54-1118h197c107 314 236 620 325 951 87-331 217-637 324-951h197L670 0H481" id="bj"/><path d="M628 24c-324 0-524-230-524-574 0-343 198-582 503-582 237 0 487 146 487 559v75H286c9 234 145 362 343 362 132 0 231-58 273-172l174 48C1024-91 857 24 628 24zM287-650h624c-17-190-120-322-304-322-192 0-309 151-320 322" id="bk"/><path d="M158 0v-1118h174v172h12c41-113 157-188 290-188 26 0 70 2 91 3v181c-11-2-60-10-108-10-161 0-279 109-279 260V0H158" id="bl"/><path d="M158 418v-1536h174v179h20c37-59 106-193 324-193 279 0 474 222 474 576 0 356-194 580-473 580-213 0-288-135-325-197h-14v591H158zm492-555c209 0 317-186 317-421 0-232-105-413-317-413-206 0-314 166-314 413 0 249 111 421 314 421" id="bm"/><g id="D"><use transform="matrix(0.010850694444444444,0,0,0.010850694444444444,0,0)" xlink:href="#aT"/><use transform="matrix(0.010850694444444444,0,0,0.010850694444444444,16.9921875,0)" xlink:href="#bj"/><use transform="matrix(0.010850694444444444,0,0,0.010850694444444444,29.047309027777775,0)" xlink:href="#bk"/><use transform="matrix(0.010850694444444444,0,0,0.010850694444444444,42.00303819444444,0)" xlink:href="#bl"/><use transform="matrix(0.010850694444444444,0,0,0.010850694444444444,50.71614583333333,0)" xlink:href="#bm"/><use transform="matrix(0.010850694444444444,0,0,0.010850694444444444,64.32291666666666,0)" xlink:href="#bl"/><use transform="matrix(0.010850694444444444,0,0,0.010850694444444444,72.31987847222221,0)" xlink:href="#bk"/><use transform="matrix(0.010850694444444444,0,0,0.010850694444444444,85.27560763888889,0)" xlink:href="#aM"/><use transform="matrix(0.010850694444444444,0,0,0.010850694444444444,97.00520833333333,0)" xlink:href="#aM"/><use transform="matrix(0.010850694444444444,0,0,0.010850694444444444,108.73480902777777,0)" xlink:href="#aL"/><use transform="matrix(0.010850694444444444,0,0,0.010850694444444444,121.875,0)" xlink:href="#bl"/><use transform="matrix(0.010850694444444444,0,0,0.010850694444444444,129.87196180555554,0)" xlink:href="#bk"/></g><path fill="#cc4e00" d="M192 0v-1490h1490V0H192" id="bn"/><use transform="matrix(0.013020833333333334,0,0,0.013020833333333334,0,0)" xlink:href="#bn" id="E"/><path fill="#cc4e00" d="M180 0v-1490h190v644h782v-644h190V0h-190v-678H370V0H180" id="bo"/><path fill="#cc4e00" d="M180 0v-1490h901v168H370v510h643v168H370V0H180" id="bp"/><path fill="#cc4e00" d="M180 0v-1490h908v168H370v486h669v168H370v500h727V0H180" id="bq"/><g id="F"><use transform="matrix(0.013020833333333334,0,0,0.013020833333333334,0,0)" xlink:href="#bo"/><use transform="matrix(0.013020833333333334,0,0,0.013020833333333334,19.817708333333336,0)" xlink:href="#bp"/><use transform="matrix(0.013020833333333334,0,0,0.013020833333333334,35.559895833333336,0)" xlink:href="#bq"/></g><path fill="#cc4e00" d="M180 0v-1490h510c348 0 508 209 508 474 0 266-160 477-507 477H370V0H180zm190-706h312c236 0 327-133 327-310 0-176-91-307-329-307H370v617" id="br"/><path fill="#cc4e00" d="M158 0v-1118h180V0H158zm91-1301c-68 0-125-53-125-119s57-119 125-119c69 0 126 53 126 119s-57 119-126 119" id="bs"/><path fill="#cc4e00" d="M158 418v-1536h174v179h20c37-59 106-193 324-193 279 0 474 222 474 576 0 356-194 580-473 580-213 0-288-135-325-197h-14v591H158zm492-555c209 0 317-186 317-421 0-232-105-413-317-413-206 0-314 166-314 413 0 249 111 421 314 421" id="bt"/><path fill="#cc4e00" d="M338-670V0H158v-1118h173l1 207c72-158 192-221 342-221 226 0 378 139 378 422V0H872v-695c0-172-96-275-252-275-161 0-282 109-282 300" id="bu"/><path fill="#cc4e00" d="M611 442c-248 0-391-105-460-228l146-94c47 65 117 165 314 165 178 0 307-82 307-266v-224h-17C863-141 792-18 576-18c-268 0-472-195-472-546 0-346 197-568 476-568 216 0 288 133 326 193h17v-179h175V29c0 289-215 413-487 413zm-5-620c203 0 314-146 314-390 0-237-108-403-314-403-213 0-319 180-319 403 0 230 109 390 319 390" id="bv"/><g id="G"><use transform="matrix(0.013020833333333334,0,0,0.013020833333333334,0,0)" xlink:href="#br"/><use transform="matrix(0.013020833333333334,0,0,0.013020833333333334,17.03125,0)" xlink:href="#bs"/><use transform="matrix(0.013020833333333334,0,0,0.013020833333333334,23.489583333333336,0)" xlink:href="#bt"/><use transform="matrix(0.013020833333333334,0,0,0.013020833333333334,39.817708333333336,0)" xlink:href="#bs"/><use transform="matrix(0.013020833333333334,0,0,0.013020833333333334,46.27604166666667,0)" xlink:href="#bu"/><use transform="matrix(0.013020833333333334,0,0,0.013020833333333334,62.03125,0)" xlink:href="#bv"/></g><path fill="#1071e5" d="M192 0v-1490h1490V0H192" id="bw"/><use transform="matrix(0.013020833333333334,0,0,0.013020833333333334,0,0)" xlink:href="#bw" id="H"/><path fill="#1071e5" d="M180 0v-1490h190v1322h690V0H180" id="bx"/><path fill="#1071e5" d="M180 0v-1490h224l606 953c40 63 108 177 176 312-27-437-7-821-13-1265h190V0h-226C860-448 622-778 356-1262c27 476 11 792 15 1262H180" id="by"/><g id="I"><use transform="matrix(0.013020833333333334,0,0,0.013020833333333334,0,0)" xlink:href="#bx"/><use transform="matrix(0.013020833333333334,0,0,0.013020833333333334,15.078125,0)" xlink:href="#by"/></g><path fill="#1071e5" d="M180 0v-1490h510c348 0 508 209 508 474 0 266-160 477-507 477H370V0H180zm190-706h312c236 0 327-133 327-310 0-176-91-307-329-307H370v617" id="bz"/><path fill="#1071e5" d="M158 0v-1118h180V0H158zm91-1301c-68 0-125-53-125-119s57-119 125-119c69 0 126 53 126 119s-57 119-126 119" id="bA"/><path fill="#1071e5" d="M158 418v-1536h174v179h20c37-59 106-193 324-193 279 0 474 222 474 576 0 356-194 580-473 580-213 0-288-135-325-197h-14v591H158zm492-555c209 0 317-186 317-421 0-232-105-413-317-413-206 0-314 166-314 413 0 249 111 421 314 421" id="bB"/><path fill="#1071e5" d="M338-670V0H158v-1118h173l1 207c72-158 192-221 342-221 226 0 378 139 378 422V0H872v-695c0-172-96-275-252-275-161 0-282 109-282 300" id="bC"/><path fill="#1071e5" d="M611 442c-248 0-391-105-460-228l146-94c47 65 117 165 314 165 178 0 307-82 307-266v-224h-17C863-141 792-18 576-18c-268 0-472-195-472-546 0-346 197-568 476-568 216 0 288 133 326 193h17v-179h175V29c0 289-215 413-487 413zm-5-620c203 0 314-146 314-390 0-237-108-403-314-403-213 0-319 180-319 403 0 230 109 390 319 390" id="bD"/><g id="J"><use transform="matrix(0.013020833333333334,0,0,0.013020833333333334,0,0)" xlink:href="#bz"/><use transform="matrix(0.013020833333333334,0,0,0.013020833333333334,17.03125,0)" xlink:href="#bA"/><use transform="matrix(0.013020833333333334,0,0,0.013020833333333334,23.489583333333336,0)" xlink:href="#bB"/><use transform="matrix(0.013020833333333334,0,0,0.013020833333333334,39.817708333333336,0)" xlink:href="#bA"/><use transform="matrix(0.013020833333333334,0,0,0.013020833333333334,46.27604166666667,0)" xlink:href="#bC"/><use transform="matrix(0.013020833333333334,0,0,0.013020833333333334,62.03125,0)" xlink:href="#bD"/></g><path fill="#6db1ff" d="M192 0v-1490h1490V0H192" id="bE"/><use transform="matrix(0.013020833333333334,0,0,0.013020833333333334,0,0)" xlink:href="#bE" id="K"/><path fill="#6db1ff" d="M789 20c-398 0-667-293-667-764 0-473 273-766 655-766 315 0 558 198 612 487h-196c-61-191-204-311-415-311-262 0-471 207-471 590 0 380 208 588 482 588 249 0 420-165 425-427H828v-166h572v163c0 370-256 606-611 606" id="bF"/><path fill="#6db1ff" d="M180 0v-1490h224l606 953c40 63 108 177 176 312-27-437-7-821-13-1265h190V0h-226C860-448 622-778 356-1262c27 476 11 792 15 1262H180" id="bG"/><g id="L"><use transform="matrix(0.013020833333333334,0,0,0.013020833333333334,0,0)" xlink:href="#bF"/><use transform="matrix(0.013020833333333334,0,0,0.013020833333333334,19.895833333333336,0)" xlink:href="#bG"/></g><path fill="#6db1ff" d="M180 0v-1490h510c348 0 508 209 508 474 0 266-160 477-507 477H370V0H180zm190-706h312c236 0 327-133 327-310 0-176-91-307-329-307H370v617" id="bH"/><path fill="#6db1ff" d="M158 0v-1118h180V0H158zm91-1301c-68 0-125-53-125-119s57-119 125-119c69 0 126 53 126 119s-57 119-126 119" id="bI"/><path fill="#6db1ff" d="M158 418v-1536h174v179h20c37-59 106-193 324-193 279 0 474 222 474 576 0 356-194 580-473 580-213 0-288-135-325-197h-14v591H158zm492-555c209 0 317-186 317-421 0-232-105-413-317-413-206 0-314 166-314 413 0 249 111 421 314 421" id="bJ"/><path fill="#6db1ff" d="M338-670V0H158v-1118h173l1 207c72-158 192-221 342-221 226 0 378 139 378 422V0H872v-695c0-172-96-275-252-275-161 0-282 109-282 300" id="bK"/><path fill="#6db1ff" d="M611 442c-248 0-391-105-460-228l146-94c47 65 117 165 314 165 178 0 307-82 307-266v-224h-17C863-141 792-18 576-18c-268 0-472-195-472-546 0-346 197-568 476-568 216 0 288 133 326 193h17v-179h175V29c0 289-215 413-487 413zm-5-620c203 0 314-146 314-390 0-237-108-403-314-403-213 0-319 180-319 403 0 230 109 390 319 390" id="bL"/><g id="M"><use transform="matrix(0.013020833333333334,0,0,0.013020833333333334,0,0)" xlink:href="#bH"/><use transform="matrix(0.013020833333333334,0,0,0.013020833333333334,17.03125,0)" xlink:href="#bI"/><use transform="matrix(0.013020833333333334,0,0,0.013020833333333334,23.489583333333336,0)" xlink:href="#bJ"/><use transform="matrix(0.013020833333333334,0,0,0.013020833333333334,39.817708333333336,0)" xlink:href="#bI"/><use transform="matrix(0.013020833333333334,0,0,0.013020833333333334,46.27604166666667,0)" xlink:href="#bK"/><use transform="matrix(0.013020833333333334,0,0,0.013020833333333334,62.03125,0)" xlink:href="#bL"/></g><path fill="#82755b" d="M192 0v-1490h1490V0H192" id="bM"/><use transform="matrix(0.013020833333333334,0,0,0.013020833333333334,0,0)" xlink:href="#bM" id="N"/><path fill="#82755b" d="M600 0L52-1490h200c166 485 304 806 458 1336 156-533 285-846 449-1336h202L819 0H600" id="bN"/><path fill="#82755b" d="M471 26C259 26 90-98 90-318c0-256 228-303 435-329 202-27 287-16 287-108 0-139-79-219-234-219-161 0-248 86-283 164l-173-57c86-203 278-265 451-265 150 0 419 46 419 395V0H815v-152h-12C765-73 660 26 471 26zm31-159c199 0 310-134 310-271v-155c-30 35-226 55-295 64-131 17-246 59-246 186 0 116 97 176 231 176" id="bO"/><path fill="#82755b" d="M613 24c-304 0-509-231-509-576 0-350 205-580 509-580 216 0 392 114 453 309l-173 49c-33-115-133-197-280-197-223 0-326 196-326 419 0 220 103 415 326 415 150 0 252-85 285-206l172 49C1010-95 832 24 613 24" id="bP"/><path fill="#82755b" d="M537 14c-226 0-379-139-379-422v-710h180v695c0 172 97 275 253 275 160 0 281-109 281-300v-670h181V0H879v-209C806-46 684 14 537 14" id="bQ"/><path fill="#82755b" d="M158 0v-1118h175l1 205c55-151 181-225 313-225 147 0 245 90 285 228 53-141 190-228 352-228 194 0 352 125 352 384V0h-181v-749c0-161-105-225-225-225-151 0-243 103-243 244V0H807v-767c0-124-93-207-219-207-131 0-250 92-250 270V0H158" id="bR"/><g id="O"><use transform="matrix(0.013020833333333334,0,0,0.013020833333333334,0,0)" xlink:href="#bN"/><use transform="matrix(0.013020833333333334,0,0,0.013020833333333334,17.044270833333332,0)" xlink:href="#bO"/><use transform="matrix(0.013020833333333334,0,0,0.013020833333333334,32.018229166666664,0)" xlink:href="#bP"/><use transform="matrix(0.013020833333333334,0,0,0.013020833333333334,47.252604166666664,0)" xlink:href="#bQ"/><use transform="matrix(0.013020833333333334,0,0,0.013020833333333334,63.02083333333332,0)" xlink:href="#bQ"/><use transform="matrix(0.013020833333333334,0,0,0.013020833333333334,78.7890625,0)" xlink:href="#bR"/></g><path fill="#82755b" d="M180 0v-1490h510c348 0 508 209 508 474 0 266-160 477-507 477H370V0H180zm190-706h312c236 0 327-133 327-310 0-176-91-307-329-307H370v617" id="bS"/><path fill="#82755b" d="M158 0v-1118h180V0H158zm91-1301c-68 0-125-53-125-119s57-119 125-119c69 0 126 53 126 119s-57 119-126 119" id="bT"/><path fill="#82755b" d="M158 418v-1536h174v179h20c37-59 106-193 324-193 279 0 474 222 474 576 0 356-194 580-473 580-213 0-288-135-325-197h-14v591H158zm492-555c209 0 317-186 317-421 0-232-105-413-317-413-206 0-314 166-314 413 0 249 111 421 314 421" id="bU"/><path fill="#82755b" d="M338-670V0H158v-1118h173l1 207c72-158 192-221 342-221 226 0 378 139 378 422V0H872v-695c0-172-96-275-252-275-161 0-282 109-282 300" id="bV"/><path fill="#82755b" d="M611 442c-248 0-391-105-460-228l146-94c47 65 117 165 314 165 178 0 307-82 307-266v-224h-17C863-141 792-18 576-18c-268 0-472-195-472-546 0-346 197-568 476-568 216 0 288 133 326 193h17v-179h175V29c0 289-215 413-487 413zm-5-620c203 0 314-146 314-390 0-237-108-403-314-403-213 0-319 180-319 403 0 230 109 390 319 390" id="bW"/><g id="P"><use transform="matrix(0.013020833333333334,0,0,0.013020833333333334,0,0)" xlink:href="#bS"/><use transform="matrix(0.013020833333333334,0,0,0.013020833333333334,17.03125,0)" xlink:href="#bT"/><use transform="matrix(0.013020833333333334,0,0,0.013020833333333334,23.489583333333336,0)" xlink:href="#bU"/><use transform="matrix(0.013020833333333334,0,0,0.013020833333333334,39.817708333333336,0)" xlink:href="#bT"/><use transform="matrix(0.013020833333333334,0,0,0.013020833333333334,46.27604166666667,0)" xlink:href="#bV"/><use transform="matrix(0.013020833333333334,0,0,0.013020833333333334,62.03125,0)" xlink:href="#bW"/></g><path d="M192 0v-1490h1490V0H192" id="bX"/><use transform="matrix(0.013020833333333334,0,0,0.013020833333333334,0,0)" xlink:href="#bX" id="Q"/><path d="M692-1560L212 224H46l480-1784h166" id="bY"/><path d="M613 24c-304 0-509-231-509-576 0-350 205-580 509-580 216 0 392 114 453 309l-173 49c-33-115-133-197-280-197-223 0-326 196-326 419 0 220 103 415 326 415 150 0 252-85 285-206l172 49C1010-95 832 24 613 24" id="bZ"/><path d="M158 0v-1118h175l1 205c55-151 181-225 313-225 147 0 245 90 285 228 53-141 190-228 352-228 194 0 352 125 352 384V0h-181v-749c0-161-105-225-225-225-151 0-243 103-243 244V0H807v-767c0-124-93-207-219-207-131 0-250 92-250 270V0H158" id="ca"/><g id="R"><use transform="matrix(0.013020833333333334,0,0,0.013020833333333334,0,0)" xlink:href="#bh"/><use transform="matrix(0.013020833333333334,0,0,0.013020833333333334,19.817708333333336,0)" xlink:href="#as"/><use transform="matrix(0.013020833333333334,0,0,0.013020833333333334,35.559895833333336,0)" xlink:href="#aH"/><use transform="matrix(0.013020833333333334,0,0,0.013020833333333334,51.58854166666667,0)" xlink:href="#bY"/><use transform="matrix(0.013020833333333334,0,0,0.013020833333333334,61.19791666666667,0)" xlink:href="#ba"/><use transform="matrix(0.013020833333333334,0,0,0.013020833333333334,81.09375,0)" xlink:href="#aF"/><use transform="matrix(0.013020833333333334,0,0,0.013020833333333334,101.18489583333334,0)" xlink:href="#bY"/><use transform="matrix(0.013020833333333334,0,0,0.013020833333333334,110.79427083333334,0)" xlink:href="#ar"/><use transform="matrix(0.013020833333333334,0,0,0.013020833333333334,127.83854166666667,0)" xlink:href="#aK"/><use transform="matrix(0.013020833333333334,0,0,0.013020833333333334,142.8125,0)" xlink:href="#bZ"/><use transform="matrix(0.013020833333333334,0,0,0.013020833333333334,158.046875,0)" xlink:href="#aL"/><use transform="matrix(0.013020833333333334,0,0,0.013020833333333334,173.81510416666666,0)" xlink:href="#aL"/><use transform="matrix(0.013020833333333334,0,0,0.013020833333333334,189.58333333333331,0)" xlink:href="#ca"/></g><path d="M158 0v-1118h180V0H158zm91-1301c-68 0-125-53-125-119s57-119 125-119c69 0 126 53 126 119s-57 119-126 119" id="cb"/><path d="M338-1490V0H158v-1490h180" id="cc"/><path d="M613 24c-304 0-509-231-509-576 0-350 205-580 509-580 305 0 511 230 511 580 0 345-206 576-511 576zm0-161c226 0 329-195 329-415 0-222-103-419-329-419-223 0-326 196-326 419 0 220 103 415 326 415" id="cd"/><path d="M158 0v-1490h180v865h22l478-493h223L593-638 1096 0H865L456-523 338-412V0H158" id="ce"/><g id="S"><use transform="matrix(0.013020833333333334,0,0,0.013020833333333334,0,0)" xlink:href="#bf"/><use transform="matrix(0.013020833333333334,0,0,0.013020833333333334,18.541666666666668,0)" xlink:href="#cb"/><use transform="matrix(0.013020833333333334,0,0,0.013020833333333334,25,0)" xlink:href="#bl"/><use transform="matrix(0.013020833333333334,0,0,0.013020833333333334,35.45572916666667,0)" xlink:href="#cc"/><use transform="matrix(0.013020833333333334,0,0,0.013020833333333334,41.91406250000001,0)" xlink:href="#cd"/><use transform="matrix(0.013020833333333334,0,0,0.013020833333333334,57.90364583333335,0)" xlink:href="#bZ"/><use transform="matrix(0.013020833333333334,0,0,0.013020833333333334,73.13802083333334,0)" xlink:href="#ce"/></g><path fill="#008a0e" d="M192 0v-1490h1490V0H192" id="cf"/><use transform="matrix(0.013020833333333334,0,0,0.013020833333333334,0,0)" xlink:href="#cf" id="T"/><path fill="#008a0e" d="M180 0v-1490h190v644h782v-644h190V0h-190v-678H370V0H180" id="cg"/><path fill="#008a0e" d="M180 0v-1490h901v168H370v510h643v168H370V0H180" id="ch"/><path fill="#008a0e" d="M180 0v-1490h908v168H370v486h669v168H370v500h727V0H180" id="ci"/><path fill="#008a0e" d="M692-1560L212 224H46l480-1784h166" id="cj"/><path fill="#008a0e" d="M789 20c-398 0-667-293-667-764 0-473 273-766 655-766 315 0 558 198 612 487h-196c-61-191-204-311-415-311-262 0-471 207-471 590 0 380 208 588 482 588 249 0 420-165 425-427H828v-166h572v163c0 370-256 606-611 606" id="ck"/><path fill="#008a0e" d="M180 0v-1490h224l606 953c40 63 108 177 176 312-27-437-7-821-13-1265h190V0h-226C860-448 622-778 356-1262c27 476 11 792 15 1262H180" id="cl"/><g id="U"><use transform="matrix(0.013020833333333334,0,0,0.013020833333333334,0,0)" xlink:href="#cg"/><use transform="matrix(0.013020833333333334,0,0,0.013020833333333334,19.817708333333336,0)" xlink:href="#ch"/><use transform="matrix(0.013020833333333334,0,0,0.013020833333333334,35.559895833333336,0)" xlink:href="#ci"/><use transform="matrix(0.013020833333333334,0,0,0.013020833333333334,51.58854166666667,0)" xlink:href="#cj"/><use transform="matrix(0.013020833333333334,0,0,0.013020833333333334,61.19791666666667,0)" xlink:href="#ck"/><use transform="matrix(0.013020833333333334,0,0,0.013020833333333334,81.09375,0)" xlink:href="#cl"/></g><path fill="#008a0e" d="M180 0v-1490h510c348 0 508 209 508 474 0 266-160 477-507 477H370V0H180zm190-706h312c236 0 327-133 327-310 0-176-91-307-329-307H370v617" id="cm"/><path fill="#008a0e" d="M158 0v-1118h180V0H158zm91-1301c-68 0-125-53-125-119s57-119 125-119c69 0 126 53 126 119s-57 119-126 119" id="cn"/><path fill="#008a0e" d="M158 418v-1536h174v179h20c37-59 106-193 324-193 279 0 474 222 474 576 0 356-194 580-473 580-213 0-288-135-325-197h-14v591H158zm492-555c209 0 317-186 317-421 0-232-105-413-317-413-206 0-314 166-314 413 0 249 111 421 314 421" id="co"/><path fill="#008a0e" d="M338-670V0H158v-1118h173l1 207c72-158 192-221 342-221 226 0 378 139 378 422V0H872v-695c0-172-96-275-252-275-161 0-282 109-282 300" id="cp"/><path fill="#008a0e" d="M611 442c-248 0-391-105-460-228l146-94c47 65 117 165 314 165 178 0 307-82 307-266v-224h-17C863-141 792-18 576-18c-268 0-472-195-472-546 0-346 197-568 476-568 216 0 288 133 326 193h17v-179h175V29c0 289-215 413-487 413zm-5-620c203 0 314-146 314-390 0-237-108-403-314-403-213 0-319 180-319 403 0 230 109 390 319 390" id="cq"/><g id="V"><use transform="matrix(0.013020833333333334,0,0,0.013020833333333334,0,0)" xlink:href="#cm"/><use transform="matrix(0.013020833333333334,0,0,0.013020833333333334,17.03125,0)" xlink:href="#cn"/><use transform="matrix(0.013020833333333334,0,0,0.013020833333333334,23.489583333333336,0)" xlink:href="#co"/><use transform="matrix(0.013020833333333334,0,0,0.013020833333333334,39.817708333333336,0)" xlink:href="#cn"/><use transform="matrix(0.013020833333333334,0,0,0.013020833333333334,46.27604166666667,0)" xlink:href="#cp"/><use transform="matrix(0.013020833333333334,0,0,0.013020833333333334,62.03125,0)" xlink:href="#cq"/></g><g id="W"><use transform="matrix(0.008680555555555556,0,0,0.008680555555555556,0,0)" xlink:href="#be"/><use transform="matrix(0.008680555555555556,0,0,0.008680555555555556,11.354166666666668,0)" xlink:href="#ba"/><use transform="matrix(0.008680555555555556,0,0,0.008680555555555556,24.618055555555557,0)" xlink:href="#aY"/></g><g id="X"><use transform="matrix(0.008680555555555556,0,0,0.008680555555555556,0,0)" xlink:href="#as"/><use transform="matrix(0.008680555555555556,0,0,0.008680555555555556,10.494791666666668,0)" xlink:href="#at"/><use transform="matrix(0.008680555555555556,0,0,0.008680555555555556,20.546875,0)" xlink:href="#au"/></g><g id="Y"><use transform="matrix(0.010850694444444444,0,0,0.010850694444444444,0,0)" xlink:href="#ar"/><use transform="matrix(0.010850694444444444,0,0,0.010850694444444444,14.20355902777778,0)" xlink:href="#aK"/><use transform="matrix(0.010850694444444444,0,0,0.010850694444444444,26.68185763888889,0)" xlink:href="#bZ"/><use transform="matrix(0.010850694444444444,0,0,0.010850694444444444,39.377170138888886,0)" xlink:href="#aL"/><use transform="matrix(0.010850694444444444,0,0,0.010850694444444444,52.51736111111111,0)" xlink:href="#aL"/><use transform="matrix(0.010850694444444444,0,0,0.010850694444444444,65.65755208333333,0)" xlink:href="#ca"/></g><g id="Z"><use transform="matrix(0.010850694444444444,0,0,0.010850694444444444,0,0)" xlink:href="#bm"/><use transform="matrix(0.010850694444444444,0,0,0.010850694444444444,13.606770833333332,0)" xlink:href="#aL"/><use transform="matrix(0.010850694444444444,0,0,0.010850694444444444,26.746961805555554,0)" xlink:href="#ca"/><use transform="matrix(0.010850694444444444,0,0,0.010850694444444444,46.213107638888886,0)" xlink:href="#bm"/></g><g id="aa"><use transform="matrix(0.010850694444444444,0,0,0.010850694444444444,0,0)" xlink:href="#ar"/><use transform="matrix(0.010850694444444444,0,0,0.010850694444444444,14.583333333333332,0)" xlink:href="#bd"/><use transform="matrix(0.010850694444444444,0,0,0.010850694444444444,30.81597222222222,0)" xlink:href="#as"/></g><g id="ab"><use transform="matrix(0.010850694444444444,0,0,0.010850694444444444,0,0)" xlink:href="#ar"/><use transform="matrix(0.010850694444444444,0,0,0.010850694444444444,14.583333333333332,0)" xlink:href="#bd"/><use transform="matrix(0.010850694444444444,0,0,0.010850694444444444,30.81597222222222,0)" xlink:href="#aw"/></g><g id="ac"><use transform="matrix(0.010850694444444444,0,0,0.010850694444444444,0,0)" xlink:href="#ar"/><use transform="matrix(0.010850694444444444,0,0,0.010850694444444444,14.583333333333332,0)" xlink:href="#bd"/><use transform="matrix(0.010850694444444444,0,0,0.010850694444444444,30.81597222222222,0)" xlink:href="#av"/></g><g id="ad"><use transform="matrix(0.010850694444444444,0,0,0.010850694444444444,0,0)" xlink:href="#ba"/><use transform="matrix(0.010850694444444444,0,0,0.010850694444444444,15.91796875,0)" xlink:href="#aw"/><use transform="matrix(0.010850694444444444,0,0,0.010850694444444444,30.26258680555556,0)" xlink:href="#be"/></g><g id="ae"><use transform="matrix(0.008680555555555556,0,0,0.008680555555555556,0,0)" xlink:href="#bh"/><use transform="matrix(0.008680555555555556,0,0,0.008680555555555556,13.211805555555555,0)" xlink:href="#aw"/><use transform="matrix(0.008680555555555556,0,0,0.008680555555555556,24.15798611111111,0)" xlink:href="#aT"/></g><g id="af"><use transform="matrix(0.010850694444444444,0,0,0.010850694444444444,0,0)" xlink:href="#ba"/><use transform="matrix(0.010850694444444444,0,0,0.010850694444444444,16.57986111111111,0)" xlink:href="#aF"/><use transform="matrix(0.010850694444444444,0,0,0.010850694444444444,33.322482638888886,0)" xlink:href="#bd"/></g><g id="ag"><use transform="matrix(0.010850694444444444,0,0,0.010850694444444444,0,0)" xlink:href="#ar"/><use transform="matrix(0.010850694444444444,0,0,0.010850694444444444,15.33203125,0)" xlink:href="#at"/><use transform="matrix(0.010850694444444444,0,0,0.010850694444444444,27.897135416666664,0)" xlink:href="#aF"/></g><g id="ah"><use transform="matrix(0.010850694444444444,0,0,0.010850694444444444,0,0)" xlink:href="#ar"/><use transform="matrix(0.010850694444444444,0,0,0.010850694444444444,15.33203125,0)" xlink:href="#aF"/><use transform="matrix(0.010850694444444444,0,0,0.010850694444444444,32.07465277777778,0)" xlink:href="#aT"/></g><g id="ai"><use transform="matrix(0.010850694444444444,0,0,0.010850694444444444,0,0)" xlink:href="#ar"/><use transform="matrix(0.010850694444444444,0,0,0.010850694444444444,15.33203125,0)" xlink:href="#aF"/><use transform="matrix(0.010850694444444444,0,0,0.010850694444444444,32.07465277777778,0)" xlink:href="#bd"/></g><g id="aj"><use transform="matrix(0.010850694444444444,0,0,0.010850694444444444,0,0)" xlink:href="#ar"/><use transform="matrix(0.010850694444444444,0,0,0.010850694444444444,15.33203125,0)" xlink:href="#aF"/><use transform="matrix(0.010850694444444444,0,0,0.010850694444444444,32.07465277777778,0)" xlink:href="#be"/></g><g id="ak"><use transform="matrix(0.010850694444444444,0,0,0.010850694444444444,0,0)" xlink:href="#ar"/><use transform="matrix(0.010850694444444444,0,0,0.010850694444444444,15.33203125,0)" xlink:href="#aY"/><use transform="matrix(0.010850694444444444,0,0,0.010850694444444444,29.633246527777775,0)" xlink:href="#bb"/></g><g id="al"><use transform="matrix(0.010850694444444444,0,0,0.010850694444444444,0,0)" xlink:href="#ar"/><use transform="matrix(0.010850694444444444,0,0,0.010850694444444444,15.33203125,0)" xlink:href="#aY"/><use transform="matrix(0.010850694444444444,0,0,0.010850694444444444,29.633246527777775,0)" xlink:href="#aw"/></g><g id="am"><use transform="matrix(0.010850694444444444,0,0,0.010850694444444444,0,0)" xlink:href="#ar"/><use transform="matrix(0.010850694444444444,0,0,0.010850694444444444,15.33203125,0)" xlink:href="#aF"/><use transform="matrix(0.010850694444444444,0,0,0.010850694444444444,32.07465277777778,0)" xlink:href="#as"/></g><g id="an"><use transform="matrix(0.010850694444444444,0,0,0.010850694444444444,0,0)" xlink:href="#ay"/><use transform="matrix(0.010850694444444444,0,0,0.010850694444444444,12.369791666666666,0)" xlink:href="#aW"/><use transform="matrix(0.010850694444444444,0,0,0.010850694444444444,25.50998263888889,0)" xlink:href="#aO"/><use transform="matrix(0.010850694444444444,0,0,0.010850694444444444,44.97612847222221,0)" xlink:href="#aS"/></g><path fill="#333" d="M338-670V0H158v-1490h180v566c73-149 190-208 336-208 226 0 379 139 379 422V0H872v-695c0-172-96-275-252-275-161 0-282 109-282 300" id="cr"/><path fill="#333" d="M613 24c-304 0-509-231-509-576 0-350 205-580 509-580 305 0 511 230 511 580 0 345-206 576-511 576zm0-161c226 0 329-195 329-415 0-222-103-419-329-419-223 0-326 196-326 419 0 220 103 415 326 415" id="cs"/><path fill="#333" d="M577 24c-279 0-473-224-473-580 0-354 195-576 474-576 218 0 287 134 324 193h14v-551h180V0H922v-173h-20C865-111 790 24 577 24zm27-161c203 0 314-172 314-421 0-247-108-413-314-413-212 0-317 181-317 413 0 235 108 421 317 421" id="ct"/><g id="ao"><use transform="matrix(0.010850694444444444,0,0,0.010850694444444444,0,0)" xlink:href="#cr"/><use transform="matrix(0.010850694444444444,0,0,0.010850694444444444,13.140190972222221,0)" xlink:href="#cs"/><use transform="matrix(0.010850694444444444,0,0,0.010850694444444444,26.46484375,0)" xlink:href="#cs"/><use transform="matrix(0.010850694444444444,0,0,0.010850694444444444,39.78949652777778,0)" xlink:href="#ct"/></g><g id="ap"><use transform="matrix(0.010850694444444444,0,0,0.010850694444444444,0,0)" xlink:href="#ar"/><use transform="matrix(0.010850694444444444,0,0,0.010850694444444444,15.657552083333332,0)" xlink:href="#ar"/><use transform="matrix(0.010850694444444444,0,0,0.010850694444444444,30.240885416666664,0)" xlink:href="#bd"/></g><g id="aq"><use transform="matrix(0.010850694444444444,0,0,0.010850694444444444,0,0)" xlink:href="#au"/><use transform="matrix(0.010850694444444444,0,0,0.010850694444444444,20.07378472222222,0)" xlink:href="#aF"/><use transform="matrix(0.010850694444444444,0,0,0.010850694444444444,36.81640625,0)" xlink:href="#as"/></g></defs></g></svg>